<svg width="304" height="49" viewBox="0 0 304 49" fill="none" xmlns="http://www.w3.org/2000/svg">
<path d="M18.8304 10.2923C18.6025 8.56923 18.2918 7.21538 17.8982 6.23077C17.5253 5.21538 17.0592 4.44615 16.4999 3.92308C15.9405 3.4 15.2984 3.06154 14.5733 2.90769C13.8483 2.75384 13.0197 2.67692 12.0875 2.67692V24.7385C12.0875 25.7846 12.1185 26.6462 12.1807 27.3231C12.2428 27.9692 12.3878 28.4923 12.6157 28.8923C12.8436 29.2923 13.1854 29.5846 13.6411 29.7692C14.0969 29.9538 14.7183 30.0923 15.5055 30.1846V31.1077C14.6355 31.0462 13.7551 31 12.8643 30.9692C11.9943 30.9385 11.1138 30.9231 10.2231 30.9231C9.27017 30.9231 8.32762 30.9385 7.39542 30.9692C6.46322 31 5.49996 31.0462 4.50561 31.1077V30.1846C5.2928 30.0923 5.91426 29.9538 6.37001 29.7692C6.82575 29.5846 7.16755 29.2923 7.39542 28.8923C7.62329 28.4923 7.7683 27.9692 7.83044 27.3231C7.89259 26.6462 7.92367 25.7846 7.92367 24.7385V2.67692C6.99147 2.67692 6.16285 2.75384 5.43781 2.90769C4.71277 3.06154 4.07059 3.4 3.51127 3.92308C2.95195 4.44615 2.4755 5.21538 2.0819 6.23077C1.70903 7.21538 1.40865 8.56923 1.18078 10.2923H0.372878C0.414309 9.70769 0.445382 9.12308 0.466098 8.53846C0.507529 7.92308 0.538602 7.24615 0.559317 6.50769C0.600748 5.76923 0.631822 4.92308 0.652537 3.96923C0.673253 3.01538 0.68361 1.90769 0.68361 0.646154C2.23727 0.707691 3.77021 0.76923 5.28244 0.83077C6.79467 0.892307 8.31726 0.923076 9.8502 0.923076C11.4039 0.923076 12.9575 0.892307 14.5112 0.83077C16.0648 0.76923 17.6289 0.707691 19.2032 0.646154C19.2032 1.90769 19.2136 3.01538 19.2343 3.96923C19.255 4.92308 19.2757 5.76923 19.2965 6.50769C19.3379 7.24615 19.369 7.92308 19.3897 8.53846C19.4311 9.12308 19.4725 9.70769 19.514 10.2923H18.8304Z" fill="black"/>
<path d="M18.4089 30C19.0304 29.9385 19.5483 29.8615 19.9626 29.7692C20.3769 29.6462 20.7083 29.4308 20.9569 29.1231C21.2055 28.7846 21.3816 28.3385 21.4852 27.7846C21.5887 27.2 21.6405 26.4308 21.6405 25.4769V7.47692C21.6405 6.36923 21.6095 5.47692 21.5473 4.8C21.5059 4.12308 21.3712 3.58462 21.1434 3.18462C20.9362 2.78462 20.6151 2.47692 20.1801 2.26154C19.7658 2.04615 19.1961 1.87692 18.4711 1.75385V0.646154C20.2526 0.830769 22.0445 0.923076 23.8467 0.923076C25.649 0.923076 27.4305 0.830769 29.1913 0.646154V1.75385C28.4249 1.87692 27.8137 2.04615 27.358 2.26154C26.9023 2.47692 26.5605 2.78462 26.3326 3.18462C26.1047 3.58462 25.9597 4.12308 25.8976 4.8C25.8354 5.47692 25.8043 6.36923 25.8043 7.47692V13.5692H36.1206V7.47692C36.1206 6.36923 36.0896 5.47692 36.0274 4.8C35.9653 4.12308 35.8203 3.58462 35.5924 3.18462C35.3852 2.78462 35.0538 2.47692 34.5981 2.26154C34.163 2.04615 33.5519 1.87692 32.7647 1.75385V0.646154C34.6084 0.830769 36.4314 0.923076 38.2336 0.923076C40.0359 0.923076 41.8174 0.830769 43.5782 0.646154V1.75385C42.8117 1.87692 42.211 2.04615 41.776 2.26154C41.3409 2.47692 41.0095 2.78462 40.7816 3.18462C40.5745 3.58462 40.4398 4.12308 40.3777 4.8C40.3155 5.47692 40.2845 6.36923 40.2845 7.47692V25.4769C40.2845 26.4308 40.3362 27.2 40.4398 27.7846C40.5434 28.3385 40.7195 28.7846 40.9681 29.1231C41.2166 29.4308 41.5481 29.6462 41.9624 29.7692C42.3974 29.8615 42.936 29.9385 43.5782 30V31.1077C42.6874 31.0462 41.7863 31 40.8748 30.9692C39.9841 30.9385 39.0933 30.9231 38.2025 30.9231C37.3118 30.9231 36.421 30.9385 35.5303 30.9692C34.6395 31 33.7487 31.0462 32.858 31.1077V30C33.4794 29.9385 33.9973 29.8615 34.4116 29.7692C34.8259 29.6462 35.1574 29.4308 35.406 29.1231C35.6753 28.7846 35.8617 28.3385 35.9653 27.7846C36.0689 27.2 36.1206 26.4308 36.1206 25.4769V15.5077H25.8043V25.4769C25.8043 26.4308 25.8561 27.2 25.9597 27.7846C26.0633 28.3385 26.2394 28.7846 26.488 29.1231C26.7573 29.4308 27.0991 29.6462 27.5134 29.7692C27.9484 29.8615 28.4766 29.9385 29.0981 30V31.1077C28.1866 31.0462 27.2751 31 26.3637 30.9692C25.4729 30.9385 24.5718 30.9231 23.6603 30.9231C22.7902 30.9231 21.9098 30.9385 21.0191 30.9692C20.149 31 19.279 31.0462 18.4089 31.1077V30Z" fill="black"/>
<path d="M42.4771 30C43.1814 29.9385 43.7407 29.8154 44.155 29.6308C44.59 29.4154 44.9215 29.1077 45.1493 28.7077C45.3772 28.2769 45.5222 27.7385 45.5844 27.0923C45.6672 26.4462 45.7087 25.6615 45.7087 24.7385V7.2C45.7087 6.33846 45.6672 5.58461 45.5844 4.93846C45.5222 4.29231 45.3772 3.75384 45.1493 3.32308C44.9215 2.89231 44.59 2.56923 44.155 2.35385C43.7407 2.10769 43.1814 1.96923 42.4771 1.93846V0.646154C43.5335 0.707691 44.59 0.76923 45.6465 0.83077C46.7237 0.892307 47.7906 0.923076 48.8471 0.923076C50.8565 0.923076 52.8555 0.892307 54.8442 0.83077C56.8329 0.76923 58.863 0.707691 60.9345 0.646154C60.9138 1.2 60.9035 1.75385 60.9035 2.30769C60.9035 2.86154 60.9035 3.4 60.9035 3.92308C60.9035 4.87692 60.9138 5.81538 60.9345 6.73846C60.9552 7.66154 61.0277 8.50769 61.152 9.27692L60.4684 9.46154C59.9713 7.12308 59.1737 5.36923 58.0758 4.2C56.9986 3 55.4242 2.4 53.3527 2.4H49.8725V13.6154H51.4883C52.0269 13.6154 52.5551 13.5231 53.073 13.3385C53.5909 13.1231 54.0674 12.8 54.5024 12.3692C54.9581 11.9077 55.3517 11.3077 55.6832 10.5692C56.0146 9.83077 56.2632 8.92308 56.4289 7.84615H57.0504C57.0297 8.92308 56.9986 10.0154 56.9572 11.1231C56.9364 12.2308 56.9261 13.3231 56.9261 14.4C56.9261 15.5077 56.9364 16.6154 56.9572 17.7231C56.9986 18.8 57.0297 19.8923 57.0504 21H56.4289C56.2632 19.8615 56.025 18.9077 55.7142 18.1385C55.4035 17.3692 55.041 16.7538 54.6267 16.2923C54.2124 15.8308 53.7359 15.5077 53.1973 15.3231C52.6794 15.1077 52.1097 15 51.4883 15H49.8725V28.7077C50.3696 28.9231 50.9186 29.0923 51.5194 29.2154C52.1408 29.3077 52.8244 29.3538 53.5702 29.3538C55.6003 29.3538 57.4336 28.6462 59.0701 27.2308C60.7067 25.7846 62.0946 23.5538 63.2339 20.5385L63.8243 21.1846C63.3064 22.8154 62.8093 24.4462 62.3328 26.0769C61.8771 27.7077 61.4731 29.3846 61.121 31.1077C59.5052 31.0462 57.8997 31 56.3046 30.9692C54.7095 30.9385 53.1041 30.9231 51.4883 30.9231C50.4939 30.9231 49.5307 30.9231 48.5985 30.9231C47.687 30.9231 46.8377 30.9231 46.0505 30.9231C45.284 30.9538 44.59 30.9846 43.9686 31.0154C43.3678 31.0462 42.8706 31.0769 42.4771 31.1077V30Z" fill="black"/>
<path d="M88.6404 9.83077C88.4333 8.69231 88.0914 7.63077 87.615 6.64615C87.1593 5.66154 86.6206 4.8 85.9992 4.06154C85.3984 3.32308 84.7355 2.73846 84.0105 2.30769C83.2855 1.87692 82.5501 1.66154 81.8043 1.66154C80.8721 1.66154 80.0746 2.03077 79.4117 2.76923C78.7695 3.47692 78.4484 4.55385 78.4484 6C78.4484 7.10769 78.7384 8.04615 79.3185 8.81538C79.9192 9.58461 80.665 10.2923 81.5557 10.9385C82.4465 11.5538 83.3994 12.1846 84.4145 12.8308C85.4502 13.4769 86.4135 14.2615 87.3043 15.1846C88.195 16.0769 88.9304 17.1538 89.5105 18.4154C90.1112 19.6769 90.4116 21.2462 90.4116 23.1231C90.4116 24.4462 90.2355 25.6462 89.8833 26.7231C89.5312 27.8 89.034 28.7231 88.3918 29.4923C87.7496 30.2308 86.9728 30.8 86.0613 31.2C85.1499 31.6308 84.1348 31.8462 83.0162 31.8462C82.4983 31.8462 81.9804 31.7692 81.4625 31.6154C80.9446 31.4923 80.4267 31.3385 79.9088 31.1538C79.4117 31 78.9041 30.8615 78.3863 30.7385C77.8684 30.5846 77.3505 30.5077 76.8326 30.5077C76.7497 30.5077 76.6358 30.5385 76.4908 30.6C76.3665 30.6308 76.2215 30.6769 76.0558 30.7385C75.9108 30.8 75.7658 30.8615 75.6207 30.9231C75.4757 30.9846 75.3618 31.0462 75.2789 31.1077C75.1132 29.3846 74.9371 27.6462 74.7507 25.8923C74.5643 24.1385 74.326 22.3692 74.036 20.5846H74.7196C74.9475 21.7231 75.3204 22.8462 75.8382 23.9538C76.3561 25.0615 76.9569 26.0615 77.6405 26.9538C78.3448 27.8154 79.1009 28.5077 79.9088 29.0308C80.7167 29.5538 81.5143 29.8154 82.3015 29.8154C82.9851 29.8154 83.6066 29.7385 84.1659 29.5846C84.7252 29.4308 85.2016 29.1846 85.5952 28.8462C86.0095 28.4769 86.3203 28 86.5274 27.4154C86.7553 26.8 86.8692 26.0308 86.8692 25.1077C86.8692 23.8462 86.5689 22.8 85.9681 21.9692C85.3674 21.1077 84.6112 20.3385 83.6998 19.6615C82.809 18.9538 81.8354 18.2769 80.7789 17.6308C79.7431 16.9846 78.7695 16.2462 77.858 15.4154C76.9672 14.5846 76.2215 13.6 75.6207 12.4615C75.02 11.3231 74.7196 9.92308 74.7196 8.26154C74.7196 5.36923 75.31 3.27692 76.4908 1.98461C77.6716 0.661538 79.4635 0 81.8664 0C82.4879 0 83.0887 0.076923 83.6687 0.230769C84.2487 0.353846 84.7977 0.507692 85.3156 0.692307C85.8335 0.876922 86.3203 1.04615 86.776 1.2C87.2318 1.32308 87.6564 1.38461 88.05 1.38461H89.1687C89.1479 1.90769 89.1272 2.4 89.1065 2.86154C89.0858 3.32308 89.0754 3.8 89.0754 4.29231C89.0754 5.18462 89.0961 6.10769 89.1376 7.06154C89.1997 8.01538 89.2515 8.93846 89.2929 9.83077H88.6404Z" fill="black"/>
<path d="M90.4218 0.646154C91.3747 0.707691 92.3172 0.76923 93.2494 0.83077C94.1816 0.892307 95.1242 0.923076 96.0771 0.923076C96.9886 0.923076 97.8793 0.892307 98.7494 0.83077C99.6402 0.76923 100.541 0.707691 101.453 0.646154V1.75385C100.748 1.78461 100.158 1.90769 99.6816 2.12308C99.2259 2.30769 98.8633 2.6 98.594 3C98.3454 3.36923 98.1694 3.87692 98.0658 4.52308C97.9622 5.13846 97.9104 5.90769 97.9104 6.83077V26.4C97.9104 27.6 98.1694 28.4769 98.6873 29.0308C99.2051 29.5846 100.096 29.9077 101.36 30L101.297 31.1077C100.386 31.0462 99.4848 31 98.594 30.9692C97.7033 30.9385 96.8021 30.9231 95.8907 30.9231C94.9585 30.9231 94.0263 30.9385 93.0941 30.9692C92.1619 31 91.2297 31.0462 90.2975 31.1077V30C91.5611 29.9077 92.4519 29.5846 92.9698 29.0308C93.4877 28.4769 93.7466 27.6 93.7466 26.4V6.83077C93.7466 5.01538 93.5084 3.73846 93.0319 3C92.5762 2.23077 91.7061 1.81538 90.4218 1.75385V0.646154Z" fill="black"/>
<path d="M103.915 6.23077C103.915 5.36923 103.832 4.67692 103.666 4.15385C103.521 3.63077 103.303 3.21538 103.013 2.90769C102.744 2.56923 102.413 2.32308 102.019 2.16923C101.626 1.98462 101.18 1.84615 100.683 1.75385V0.646154C102.547 0.830769 104.422 0.923076 106.307 0.923076C108.213 0.923076 110.129 0.830769 112.056 0.646154V1.75385C111.579 1.84615 111.103 1.98462 110.626 2.16923C110.15 2.32308 109.725 2.56923 109.352 2.90769C108.98 3.21538 108.669 3.63077 108.42 4.15385C108.192 4.67692 108.078 5.36923 108.078 6.23077V29.0308C108.368 29.1538 108.772 29.2462 109.29 29.3077C109.808 29.3385 110.367 29.3538 110.968 29.3538C112.128 29.3538 113.143 29.1846 114.013 28.8462C114.883 28.5077 115.671 27.9846 116.375 27.2769C117.079 26.5385 117.711 25.6308 118.27 24.5538C118.83 23.4462 119.368 22.1538 119.886 20.6769L120.663 21.1846C120.124 22.7846 119.648 24.4154 119.234 26.0769C118.84 27.7077 118.498 29.3846 118.208 31.1077C116.779 31.0462 115.339 31 113.889 30.9692C112.46 30.9385 111.03 30.9231 109.601 30.9231C108.109 30.9231 106.608 30.9385 105.095 30.9692C103.604 31 102.112 31.0462 100.621 31.1077V30C101.035 30 101.439 29.9692 101.833 29.9077C102.226 29.8462 102.578 29.7077 102.889 29.4923C103.2 29.2462 103.448 28.9077 103.635 28.4769C103.821 28.0462 103.915 27.4615 103.915 26.7231V6.23077Z" fill="black"/>
<path d="M114.283 0.646154C116.002 0.830769 117.721 0.923076 119.441 0.923076C120.332 0.923076 121.222 0.892307 122.113 0.83077C123.025 0.76923 123.926 0.707691 124.816 0.646154V1.75385C124.485 1.81538 124.154 1.89231 123.822 1.98461C123.491 2.07692 123.19 2.23077 122.921 2.44615C122.672 2.63077 122.465 2.89231 122.299 3.23077C122.154 3.56923 122.082 4.04615 122.082 4.66154C122.082 5.12308 122.237 5.98462 122.548 7.24615C122.88 8.47692 123.294 9.98462 123.791 11.7692C124.309 13.5538 124.889 15.5538 125.531 17.7692C126.173 19.9538 126.805 22.2308 127.427 24.6C128.11 22.0154 128.752 19.6308 129.353 17.4462C129.975 15.2308 130.513 13.2615 130.969 11.5385C131.445 9.81538 131.818 8.36923 132.088 7.2C132.357 6 132.491 5.12308 132.491 4.56923C132.491 4.01538 132.388 3.55385 132.181 3.18462C131.994 2.81538 131.746 2.53846 131.435 2.35385C131.145 2.13846 130.834 1.98461 130.503 1.89231C130.192 1.8 129.912 1.75385 129.664 1.75385V0.646154C130.327 0.707691 131 0.76923 131.684 0.83077C132.367 0.892307 133.04 0.923076 133.703 0.923076C134.304 0.923076 134.905 0.892307 135.506 0.83077C136.127 0.76923 136.738 0.707691 137.339 0.646154V1.75385C136.945 1.87692 136.604 2.01538 136.313 2.16923C136.023 2.32308 135.775 2.52308 135.568 2.76923C135.361 2.98461 135.174 3.26154 135.008 3.6C134.843 3.93846 134.677 4.35385 134.511 4.84615C132.875 9.76923 131.425 14.3846 130.161 18.6923C128.897 22.9692 127.758 27.1692 126.743 31.2923H125.034C124.433 29.3231 123.822 27.2615 123.201 25.1077C122.6 22.9538 121.978 20.7538 121.336 18.5077C120.694 16.2308 120.041 13.9538 119.379 11.6769C118.716 9.36923 118.042 7.10769 117.359 4.89231C117.069 3.93846 116.686 3.23077 116.209 2.76923C115.733 2.27692 115.09 1.93846 114.283 1.75385V0.646154Z" fill="black"/>
<path d="M134.98 30C135.685 29.9385 136.244 29.8154 136.658 29.6308C137.093 29.4154 137.425 29.1077 137.653 28.7077C137.881 28.2769 138.026 27.7385 138.088 27.0923C138.171 26.4462 138.212 25.6615 138.212 24.7385V7.2C138.212 6.33846 138.171 5.58461 138.088 4.93846C138.026 4.29231 137.881 3.75384 137.653 3.32308C137.425 2.89231 137.093 2.56923 136.658 2.35385C136.244 2.10769 135.685 1.96923 134.98 1.93846V0.646154C136.037 0.707691 137.093 0.76923 138.15 0.83077C139.227 0.892307 140.294 0.923076 141.35 0.923076C143.36 0.923076 145.359 0.892307 147.348 0.83077C149.336 0.76923 151.366 0.707691 153.438 0.646154C153.417 1.2 153.407 1.75385 153.407 2.30769C153.407 2.86154 153.407 3.4 153.407 3.92308C153.407 4.87692 153.417 5.81538 153.438 6.73846C153.459 7.66154 153.531 8.50769 153.655 9.27692L152.972 9.46154C152.475 7.12308 151.677 5.36923 150.579 4.2C149.502 3 147.928 2.4 145.856 2.4H142.376V13.6154H143.992C144.53 13.6154 145.059 13.5231 145.576 13.3385C146.094 13.1231 146.571 12.8 147.006 12.3692C147.462 11.9077 147.855 11.3077 148.187 10.5692C148.518 9.83077 148.767 8.92308 148.932 7.84615H149.554C149.533 8.92308 149.502 10.0154 149.461 11.1231C149.44 12.2308 149.43 13.3231 149.43 14.4C149.43 15.5077 149.44 16.6154 149.461 17.7231C149.502 18.8 149.533 19.8923 149.554 21H148.932C148.767 19.8615 148.528 18.9077 148.218 18.1385C147.907 17.3692 147.544 16.7538 147.13 16.2923C146.716 15.8308 146.239 15.5077 145.701 15.3231C145.183 15.1077 144.613 15 143.992 15H142.376V28.7077C142.873 28.9231 143.422 29.0923 144.023 29.2154C144.644 29.3077 145.328 29.3538 146.074 29.3538C148.104 29.3538 149.937 28.6462 151.574 27.2308C153.21 25.7846 154.598 23.5538 155.737 20.5385L156.328 21.1846C155.81 22.8154 155.313 24.4462 154.836 26.0769C154.381 27.7077 153.977 29.3846 153.624 31.1077C152.009 31.0462 150.403 31 148.808 30.9692C147.213 30.9385 145.608 30.9231 143.992 30.9231C142.997 30.9231 142.034 30.9231 141.102 30.9231C140.19 30.9231 139.341 30.9231 138.554 30.9231C137.787 30.9538 137.093 30.9846 136.472 31.0154C135.871 31.0462 135.374 31.0769 134.98 31.1077V30Z" fill="black"/>
<path d="M154.622 0.73846C155.388 0.8 156.134 0.846154 156.859 0.876923C157.605 0.907692 158.444 0.923076 159.376 0.923076C160.495 0.923076 161.613 0.876922 162.732 0.784614C163.851 0.692307 165.021 0.646154 166.243 0.646154C167.32 0.646154 168.284 0.876923 169.133 1.33846C170.003 1.8 170.739 2.44615 171.339 3.27692C171.961 4.07692 172.427 5.01538 172.738 6.09231C173.069 7.16923 173.235 8.33846 173.235 9.6C173.235 10.6769 173.11 11.6308 172.862 12.4615C172.634 13.2615 172.313 13.9692 171.899 14.5846C171.484 15.1692 170.997 15.6615 170.438 16.0615C169.879 16.4615 169.268 16.7692 168.605 16.9846C169.04 18.0308 169.578 19.2769 170.221 20.7231C170.863 22.1385 171.567 23.5231 172.334 24.8769C173.121 26.2 173.96 27.3692 174.851 28.3846C175.741 29.4 176.653 30.0308 177.585 30.2769V31.1077C176.984 31.0462 176.394 31 175.814 30.9692C175.254 30.9385 174.674 30.9231 174.074 30.9231C173.556 30.9231 173.038 30.9385 172.52 30.9692C172.002 31 171.484 31.0462 170.966 31.1077C169.661 29.0462 168.449 26.8923 167.331 24.6462C166.233 22.4 165.228 20.0462 164.317 17.5846C163.965 17.5231 163.561 17.4308 163.105 17.3077C162.67 17.1846 162.338 17 162.111 16.7538V24.7385C162.111 25.7846 162.131 26.6308 162.173 27.2769C162.235 27.9231 162.369 28.4308 162.577 28.8C162.805 29.1692 163.126 29.4462 163.54 29.6308C163.954 29.7846 164.524 29.9077 165.249 30V31.1077C164.524 31.0462 163.726 31 162.856 30.9692C162.007 30.9385 161.137 30.9231 160.246 30.9231C159.293 30.9231 158.351 30.9385 157.419 30.9692C156.486 31 155.554 31.0462 154.622 31.1077V30C155.388 29.9077 155.989 29.7846 156.424 29.6308C156.88 29.4462 157.211 29.1692 157.419 28.8C157.646 28.4308 157.791 27.9231 157.854 27.2769C157.916 26.6308 157.947 25.7846 157.947 24.7385V7.2C157.947 6.27692 157.916 5.49231 157.854 4.84615C157.791 4.2 157.646 3.66154 157.419 3.23077C157.211 2.8 156.88 2.47692 156.424 2.26154C155.989 2.01538 155.388 1.84615 154.622 1.75385V0.73846ZM162.111 14.9538C162.773 15.4154 163.467 15.6462 164.192 15.6462C165.56 15.6462 166.658 15.0769 167.486 13.9385C168.336 12.8 168.76 11.1385 168.76 8.95385C168.76 8.03077 168.657 7.16923 168.449 6.36923C168.263 5.53846 167.983 4.83077 167.611 4.24615C167.238 3.63077 166.792 3.15385 166.274 2.81538C165.756 2.47692 165.176 2.30769 164.534 2.30769C164.12 2.30769 163.716 2.33846 163.322 2.4C162.929 2.46154 162.525 2.6 162.111 2.81538V14.9538Z" fill="black"/>
<path d="M186.168 30C186.914 29.9077 187.504 29.7692 187.939 29.5846C188.374 29.4 188.695 29.1077 188.902 28.7077C189.13 28.3077 189.275 27.7846 189.337 27.1385C189.399 26.4615 189.43 25.6 189.43 24.5538V7.38461C189.43 6.58462 189.379 5.86154 189.275 5.21538C189.192 4.53846 189.026 3.96923 188.778 3.50769C188.55 3.01538 188.219 2.64615 187.784 2.4C187.369 2.12308 186.831 1.96923 186.168 1.93846V0.923076C188.074 0.923076 189.99 0.876922 191.916 0.784614C193.843 0.692307 195.78 0.646154 197.727 0.646154C198.556 0.646154 199.374 0.830769 200.182 1.2C201.01 1.53846 201.756 2.06154 202.419 2.76923C203.082 3.47692 203.621 4.35385 204.035 5.4C204.449 6.44615 204.656 7.66154 204.656 9.04615C204.656 10.5231 204.335 11.8 203.693 12.8769C203.051 13.9538 202.284 14.7231 201.394 15.1846V15.2769C202.015 15.4615 202.616 15.8 203.196 16.2923C203.797 16.7538 204.325 17.3385 204.781 18.0462C205.236 18.7231 205.599 19.5077 205.868 20.4C206.137 21.2615 206.272 22.2 206.272 23.2154C206.272 24.7538 206.075 26.0462 205.682 27.0923C205.309 28.1385 204.781 28.9846 204.097 29.6308C203.413 30.2462 202.605 30.6923 201.673 30.9692C200.762 31.2462 199.767 31.3846 198.69 31.3846C198.027 31.3846 197.095 31.3077 195.894 31.1538C194.713 31 193.139 30.9231 191.171 30.9231C190.528 30.9231 189.959 30.9231 189.462 30.9231C188.985 30.9538 188.55 30.9692 188.156 30.9692C187.784 31 187.431 31.0154 187.1 31.0154C186.789 31.0462 186.478 31.0769 186.168 31.1077V30ZM193.594 28.5692C194.091 28.9077 194.599 29.1538 195.117 29.3077C195.635 29.4615 196.163 29.5385 196.702 29.5385C198.152 29.5385 199.332 28.9692 200.244 27.8308C201.155 26.6615 201.611 24.9692 201.611 22.7538C201.611 21.5231 201.404 20.3538 200.99 19.2462C200.596 18.1077 200.089 17.1538 199.467 16.3846C198.556 16.7231 197.675 16.8923 196.826 16.8923C196.101 16.8923 195.479 16.8462 194.961 16.7538C194.464 16.6308 194.009 16.4462 193.594 16.2V28.5692ZM193.594 14.5846C193.946 14.7692 194.319 14.9231 194.713 15.0462C195.127 15.1692 195.583 15.2308 196.08 15.2308C196.722 15.2308 197.292 15.0769 197.789 14.7692C198.307 14.4308 198.742 13.9846 199.094 13.4308C199.446 12.8462 199.716 12.1692 199.902 11.4C200.089 10.6308 200.182 9.81538 200.182 8.95385C200.182 6.73846 199.767 5.10769 198.939 4.06154C198.11 3.01538 196.981 2.49231 195.552 2.49231C195.22 2.49231 194.899 2.50769 194.589 2.53846C194.278 2.56923 193.946 2.6 193.594 2.63077V14.5846Z" fill="black"/>
<path d="M205.343 0.646154C207.145 0.830769 208.958 0.923076 210.781 0.923076C212.625 0.923076 214.458 0.830769 216.281 0.646154L216.188 1.75385C215.421 1.81538 214.81 1.93846 214.354 2.12308C213.919 2.30769 213.588 2.6 213.36 3C213.153 3.36923 213.018 3.89231 212.956 4.56923C212.894 5.21538 212.863 6.06154 212.863 7.10769V22.4308C212.863 23.2615 212.966 24.0923 213.174 24.9231C213.401 25.7231 213.743 26.4462 214.199 27.0923C214.675 27.7385 215.276 28.2615 216.001 28.6615C216.747 29.0615 217.638 29.2615 218.673 29.2615C219.916 29.2615 220.942 28.9846 221.75 28.4308C222.578 27.8462 223.221 27.1385 223.676 26.3077C224.153 25.4769 224.484 24.5692 224.671 23.5846C224.857 22.6 224.95 21.6923 224.95 20.8615V9.50769C224.95 7.96923 224.898 6.70769 224.795 5.72308C224.691 4.73846 224.505 3.95385 224.236 3.36923C223.966 2.78461 223.604 2.36923 223.148 2.12308C222.692 1.87692 222.102 1.75385 221.377 1.75385V0.646154C221.853 0.707691 222.444 0.76923 223.148 0.83077C223.873 0.892307 224.629 0.923076 225.416 0.923076C226.059 0.923076 226.69 0.892307 227.312 0.83077C227.954 0.76923 228.586 0.707691 229.207 0.646154V1.75385C228.524 1.81538 227.985 1.93846 227.591 2.12308C227.219 2.30769 226.929 2.6 226.721 3C226.514 3.36923 226.38 3.89231 226.317 4.56923C226.276 5.21538 226.255 6.06154 226.255 7.10769V19.7538C226.255 23.6 225.52 26.5846 224.049 28.7077C222.599 30.8 220.559 31.8462 217.928 31.8462C216.353 31.8462 214.996 31.5538 213.857 30.9692C212.718 30.4154 211.775 29.6769 211.029 28.7538C210.284 27.8308 209.724 26.8 209.352 25.6615C208.999 24.5231 208.823 23.3846 208.823 22.2462V7.10769C208.823 6.27692 208.792 5.55385 208.73 4.93846C208.668 4.29231 208.523 3.75384 208.295 3.32308C208.067 2.86154 207.715 2.50769 207.239 2.26154C206.783 1.98461 206.151 1.81538 205.343 1.75385V0.646154Z" fill="black"/>
<path d="M231.472 6.23077C231.472 5.36923 231.39 4.67692 231.224 4.15385C231.079 3.63077 230.861 3.21538 230.571 2.90769C230.302 2.56923 229.971 2.32308 229.577 2.16923C229.183 1.98462 228.738 1.84615 228.241 1.75385V0.646154C230.105 0.830769 231.98 0.923076 233.865 0.923076C235.771 0.923076 237.687 0.830769 239.614 0.646154V1.75385C239.137 1.84615 238.661 1.98462 238.184 2.16923C237.708 2.32308 237.283 2.56923 236.91 2.90769C236.537 3.21538 236.227 3.63077 235.978 4.15385C235.75 4.67692 235.636 5.36923 235.636 6.23077V29.0308C235.926 29.1538 236.33 29.2462 236.848 29.3077C237.366 29.3385 237.925 29.3538 238.526 29.3538C239.686 29.3538 240.701 29.1846 241.571 28.8462C242.441 28.5077 243.228 27.9846 243.933 27.2769C244.637 26.5385 245.269 25.6308 245.828 24.5538C246.388 23.4462 246.926 22.1538 247.444 20.6769L248.221 21.1846C247.682 22.7846 247.206 24.4154 246.792 26.0769C246.398 27.7077 246.056 29.3846 245.766 31.1077C244.337 31.0462 242.897 31 241.447 30.9692C240.018 30.9385 238.588 30.9231 237.159 30.9231C235.667 30.9231 234.165 30.9385 232.653 30.9692C231.162 31 229.67 31.0462 228.179 31.1077V30C228.593 30 228.997 29.9692 229.391 29.9077C229.784 29.8462 230.136 29.7077 230.447 29.4923C230.758 29.2462 231.006 28.9077 231.193 28.4769C231.379 28.0462 231.472 27.4615 231.472 26.7231V6.23077Z" fill="black"/>
<path d="M249.868 6.23077C249.868 5.36923 249.785 4.67692 249.619 4.15385C249.474 3.63077 249.256 3.21538 248.966 2.90769C248.697 2.56923 248.366 2.32308 247.972 2.16923C247.578 1.98462 247.133 1.84615 246.636 1.75385V0.646154C248.5 0.830769 250.375 0.923076 252.26 0.923076C254.166 0.923076 256.082 0.830769 258.009 0.646154V1.75385C257.532 1.84615 257.056 1.98462 256.579 2.16923C256.103 2.32308 255.678 2.56923 255.305 2.90769C254.932 3.21538 254.622 3.63077 254.373 4.15385C254.145 4.67692 254.031 5.36923 254.031 6.23077V29.0308C254.321 29.1538 254.725 29.2462 255.243 29.3077C255.761 29.3385 256.32 29.3538 256.921 29.3538C258.081 29.3538 259.096 29.1846 259.966 28.8462C260.836 28.5077 261.624 27.9846 262.328 27.2769C263.032 26.5385 263.664 25.6308 264.223 24.5538C264.783 23.4462 265.321 22.1538 265.839 20.6769L266.616 21.1846C266.077 22.7846 265.601 24.4154 265.187 26.0769C264.793 27.7077 264.451 29.3846 264.161 31.1077C262.732 31.0462 261.292 31 259.842 30.9692C258.413 30.9385 256.983 30.9231 255.554 30.9231C254.062 30.9231 252.561 30.9385 251.048 30.9692C249.557 31 248.065 31.0462 246.574 31.1077V30C246.988 30 247.392 29.9692 247.786 29.9077C248.179 29.8462 248.531 29.7077 248.842 29.4923C249.153 29.2462 249.401 28.9077 249.588 28.4769C249.774 28.0462 249.868 27.4615 249.868 26.7231V6.23077Z" fill="black"/>
<path d="M264.845 30C265.549 29.9385 266.108 29.8154 266.523 29.6308C266.958 29.4154 267.289 29.1077 267.517 28.7077C267.745 28.2769 267.89 27.7385 267.952 27.0923C268.035 26.4462 268.076 25.6615 268.076 24.7385V7.2C268.076 6.33846 268.035 5.58461 267.952 4.93846C267.89 4.29231 267.745 3.75384 267.517 3.32308C267.289 2.89231 266.958 2.56923 266.523 2.35385C266.108 2.10769 265.549 1.96923 264.845 1.93846V0.646154C265.901 0.707691 266.958 0.76923 268.014 0.83077C269.091 0.892307 270.158 0.923076 271.215 0.923076C273.224 0.923076 275.223 0.892307 277.212 0.83077C279.2 0.76923 281.231 0.707691 283.302 0.646154C283.281 1.2 283.271 1.75385 283.271 2.30769C283.271 2.86154 283.271 3.4 283.271 3.92308C283.271 4.87692 283.281 5.81538 283.302 6.73846C283.323 7.66154 283.395 8.50769 283.52 9.27692L282.836 9.46154C282.339 7.12308 281.541 5.36923 280.443 4.2C279.366 3 277.792 2.4 275.72 2.4H272.24V13.6154H273.856C274.394 13.6154 274.923 13.5231 275.441 13.3385C275.958 13.1231 276.435 12.8 276.87 12.3692C277.326 11.9077 277.719 11.3077 278.051 10.5692C278.382 9.83077 278.631 8.92308 278.796 7.84615H279.418C279.397 8.92308 279.366 10.0154 279.325 11.1231C279.304 12.2308 279.294 13.3231 279.294 14.4C279.294 15.5077 279.304 16.6154 279.325 17.7231C279.366 18.8 279.397 19.8923 279.418 21H278.796C278.631 19.8615 278.393 18.9077 278.082 18.1385C277.771 17.3692 277.409 16.7538 276.994 16.2923C276.58 15.8308 276.103 15.5077 275.565 15.3231C275.047 15.1077 274.477 15 273.856 15H272.24V28.7077C272.737 28.9231 273.286 29.0923 273.887 29.2154C274.508 29.3077 275.192 29.3538 275.938 29.3538C277.968 29.3538 279.801 28.6462 281.438 27.2308C283.074 25.7846 284.462 23.5538 285.602 20.5385L286.192 21.1846C285.674 22.8154 285.177 24.4462 284.7 26.0769C284.245 27.7077 283.841 29.3846 283.489 31.1077C281.873 31.0462 280.267 31 278.672 30.9692C277.077 30.9385 275.472 30.9231 273.856 30.9231C272.862 30.9231 271.898 30.9231 270.966 30.9231C270.055 30.9231 269.205 30.9231 268.418 30.9231C267.652 30.9538 266.958 30.9846 266.336 31.0154C265.735 31.0462 265.238 31.0769 264.845 31.1077V30Z" fill="black"/>
<path d="M302.695 10.2923C302.467 8.56923 302.156 7.21538 301.763 6.23077C301.39 5.21538 300.924 4.44615 300.364 3.92308C299.805 3.4 299.163 3.06154 298.438 2.90769C297.713 2.75384 296.884 2.67692 295.952 2.67692V24.7385C295.952 25.7846 295.983 26.6462 296.045 27.3231C296.107 27.9692 296.252 28.4923 296.48 28.8923C296.708 29.2923 297.05 29.5846 297.506 29.7692C297.961 29.9538 298.583 30.0923 299.37 30.1846V31.1077C298.5 31.0462 297.62 31 296.729 30.9692C295.859 30.9385 294.978 30.9231 294.088 30.9231C293.135 30.9231 292.192 30.9385 291.26 30.9692C290.328 31 289.365 31.0462 288.37 31.1077V30.1846C289.157 30.0923 289.779 29.9538 290.235 29.7692C290.69 29.5846 291.032 29.2923 291.26 28.8923C291.488 28.4923 291.633 27.9692 291.695 27.3231C291.757 26.6462 291.788 25.7846 291.788 24.7385V2.67692C290.856 2.67692 290.027 2.75384 289.302 2.90769C288.577 3.06154 287.935 3.4 287.376 3.92308C286.817 4.44615 286.34 5.21538 285.946 6.23077C285.574 7.21538 285.273 8.56923 285.045 10.2923H284.237C284.279 9.70769 284.31 9.12308 284.331 8.53846C284.372 7.92308 284.403 7.24615 284.424 6.50769C284.465 5.76923 284.496 4.92308 284.517 3.96923C284.538 3.01538 284.548 1.90769 284.548 0.646154C286.102 0.707691 287.635 0.76923 289.147 0.83077C290.659 0.892307 292.182 0.923076 293.715 0.923076C295.268 0.923076 296.822 0.892307 298.376 0.83077C299.929 0.76923 301.493 0.707691 303.068 0.646154C303.068 1.90769 303.078 3.01538 303.099 3.96923C303.12 4.92308 303.14 5.76923 303.161 6.50769C303.202 7.24615 303.234 7.92308 303.254 8.53846C303.296 9.12308 303.337 9.70769 303.379 10.2923H302.695Z" fill="black"/>
<path d="M0 36.6923H304V39H0V36.6923Z" fill="black"/>
<path d="M10.112 44.064C10.112 43.84 10.104 43.656 10.088 43.512C10.0774 43.3627 10.0427 43.2427 9.98402 43.152C9.93069 43.0613 9.85069 42.9947 9.74402 42.952C9.63735 42.9093 9.48802 42.88 9.29602 42.864V42.768C9.46135 42.7787 9.62402 42.7867 9.78402 42.792C9.94402 42.7973 10.1067 42.8 10.272 42.8C10.4854 42.8 10.6987 42.7893 10.912 42.768C11.1254 42.7467 11.3547 42.736 11.6 42.736C11.824 42.736 12.0587 42.76 12.304 42.808C12.5547 42.856 12.784 42.9387 12.992 43.056C13.2 43.168 13.3734 43.32 13.512 43.512C13.6507 43.704 13.72 43.944 13.72 44.232C13.72 44.472 13.6427 44.6907 13.488 44.888C13.3387 45.08 13.152 45.2133 12.928 45.288V45.304C13.296 45.4213 13.5814 45.6027 13.784 45.848C13.992 46.088 14.096 46.408 14.096 46.808C14.096 47.0533 14.0427 47.2587 13.936 47.424C13.8294 47.584 13.688 47.7147 13.512 47.816C13.336 47.912 13.136 47.9787 12.912 48.016C12.688 48.0587 12.4587 48.08 12.224 48.08C11.856 48.08 11.4934 48.0667 11.136 48.04C10.784 48.0133 10.424 48 10.056 48C9.93335 48 9.80802 48.0027 9.68002 48.008C9.55735 48.0133 9.43469 48.0213 9.31202 48.032V47.936C9.49869 47.92 9.64535 47.8907 9.75202 47.848C9.85869 47.8053 9.93869 47.7387 9.99202 47.648C10.0454 47.5573 10.0774 47.44 10.088 47.296C10.104 47.1467 10.112 46.96 10.112 46.736V44.064ZM10.832 47.568C10.8534 47.6107 10.9014 47.648 10.976 47.68C11.056 47.712 11.1467 47.7413 11.248 47.768C11.3547 47.7893 11.4667 47.808 11.584 47.824C11.7014 47.8347 11.8134 47.84 11.92 47.84C12.352 47.84 12.688 47.728 12.928 47.504C13.1734 47.2747 13.296 46.944 13.296 46.512C13.296 46.2773 13.224 46.064 13.08 45.872C12.936 45.6747 12.7707 45.512 12.584 45.384C12.456 45.4053 12.328 45.4267 12.2 45.448C12.072 45.464 11.9414 45.472 11.808 45.472C11.6427 45.472 11.4774 45.464 11.312 45.448C11.1467 45.4267 10.9867 45.3867 10.832 45.328V47.568ZM10.832 45.072C10.976 45.1467 11.1227 45.1973 11.272 45.224C11.4214 45.2507 11.5734 45.264 11.728 45.264C12.0694 45.264 12.352 45.1707 12.576 44.984C12.8054 44.792 12.92 44.5173 12.92 44.16C12.92 43.9787 12.8827 43.816 12.808 43.672C12.7334 43.528 12.6347 43.4053 12.512 43.304C12.3894 43.1973 12.2454 43.1173 12.08 43.064C11.92 43.0053 11.752 42.976 11.576 42.976C11.448 42.976 11.3227 42.9813 11.2 42.992C11.0774 43.0027 10.9547 43.0293 10.832 43.072V45.072Z" fill="black"/>
<path d="M20.3806 48H18.9406C18.6046 47.632 18.2926 47.256 18.0046 46.872C17.7219 46.4827 17.4686 46.072 17.2446 45.64C17.1913 45.64 17.1219 45.6347 17.0366 45.624C16.9566 45.6133 16.8713 45.6027 16.7806 45.592C16.6953 45.576 16.6099 45.56 16.5246 45.544C16.4446 45.5227 16.3779 45.504 16.3246 45.488V46.736C16.3246 46.96 16.3299 47.1467 16.3406 47.296C16.3566 47.44 16.3913 47.5573 16.4446 47.648C16.5033 47.7387 16.5886 47.8053 16.7006 47.848C16.8126 47.8907 16.9673 47.92 17.1646 47.936V48.032C16.9619 48.0213 16.7593 48.0133 16.5566 48.008C16.3539 48.0027 16.1513 48 15.9486 48C15.7513 48 15.5566 48.0027 15.3646 48.008C15.1726 48.0133 14.9806 48.0213 14.7886 48.032V47.936C14.9806 47.92 15.1299 47.8907 15.2366 47.848C15.3433 47.8053 15.4233 47.7387 15.4766 47.648C15.5353 47.5573 15.5699 47.44 15.5806 47.296C15.5966 47.1467 15.6046 46.96 15.6046 46.736V44.064C15.6046 43.84 15.5966 43.656 15.5806 43.512C15.5699 43.3627 15.5353 43.2427 15.4766 43.152C15.4233 43.0613 15.3433 42.9947 15.2366 42.952C15.1299 42.9093 14.9806 42.88 14.7886 42.864V42.768C14.9593 42.7787 15.1299 42.7867 15.3006 42.792C15.4713 42.7973 15.6419 42.8 15.8126 42.8C15.8873 42.8 15.9806 42.7973 16.0926 42.792C16.2046 42.7813 16.3219 42.7707 16.4446 42.76C16.5726 42.7493 16.7006 42.7413 16.8286 42.736C16.9566 42.7253 17.0713 42.72 17.1726 42.72C17.4019 42.72 17.6366 42.7493 17.8766 42.808C18.1166 42.8667 18.3326 42.96 18.5246 43.088C18.7166 43.216 18.8739 43.3787 18.9966 43.576C19.1193 43.7733 19.1806 44.008 19.1806 44.28C19.1806 44.4667 19.1459 44.632 19.0766 44.776C19.0126 44.92 18.9246 45.0453 18.8126 45.152C18.7006 45.2587 18.5673 45.3467 18.4126 45.416C18.2633 45.4853 18.1059 45.536 17.9406 45.568C18.0153 45.696 18.1033 45.84 18.2046 46C18.3059 46.16 18.4179 46.3227 18.5406 46.488C18.6686 46.6533 18.8019 46.8187 18.9406 46.984C19.0846 47.144 19.2339 47.2907 19.3886 47.424C19.5486 47.552 19.7113 47.6613 19.8766 47.752C20.0419 47.8373 20.2099 47.888 20.3806 47.904V48ZM16.3246 45.216C16.5646 45.3067 16.8126 45.352 17.0686 45.352C17.4846 45.352 17.8073 45.256 18.0366 45.064C18.2659 44.872 18.3806 44.56 18.3806 44.128C18.3806 43.952 18.3459 43.7947 18.2766 43.656C18.2126 43.512 18.1219 43.3893 18.0046 43.288C17.8873 43.1813 17.7513 43.1013 17.5966 43.048C17.4473 42.9893 17.2899 42.96 17.1246 42.96C16.9913 42.96 16.8606 42.9653 16.7326 42.976C16.6046 42.9867 16.4793 43.0107 16.3566 43.048C16.3459 43.304 16.3379 43.5627 16.3326 43.824C16.3273 44.0853 16.3246 44.368 16.3246 44.672V45.216Z" fill="black"/>
<path d="M20.626 47.936C20.818 47.92 20.9674 47.8907 21.074 47.848C21.1807 47.8053 21.2607 47.7387 21.314 47.648C21.3727 47.5573 21.4074 47.44 21.418 47.296C21.434 47.1467 21.442 46.96 21.442 46.736V44.064C21.442 43.84 21.434 43.656 21.418 43.512C21.4074 43.3627 21.3727 43.2427 21.314 43.152C21.2607 43.0613 21.178 42.9947 21.066 42.952C20.954 42.9093 20.802 42.88 20.61 42.864V42.768C20.834 42.7787 21.05 42.7867 21.258 42.792C21.4714 42.7973 21.69 42.8 21.914 42.8C22.09 42.8 22.266 42.7973 22.442 42.792C22.618 42.7867 22.7914 42.7787 22.962 42.768V42.864C22.7754 42.88 22.6287 42.9093 22.522 42.952C22.4154 42.9947 22.3354 43.0613 22.282 43.152C22.2287 43.2427 22.194 43.3627 22.178 43.512C22.1674 43.656 22.162 43.84 22.162 44.064V46.736C22.162 46.96 22.1674 47.1467 22.178 47.296C22.194 47.44 22.2287 47.5573 22.282 47.648C22.3407 47.7387 22.426 47.8053 22.538 47.848C22.65 47.8907 22.8047 47.92 23.002 47.936V48.032C22.7994 48.0213 22.5967 48.0133 22.394 48.008C22.1914 48.0027 21.9887 48 21.786 48C21.5887 48 21.394 48.0027 21.202 48.008C21.01 48.0133 20.818 48.0213 20.626 48.032V47.936Z" fill="black"/>
<path d="M24.7674 47.936C24.9594 47.92 25.1087 47.8907 25.2154 47.848C25.3221 47.8053 25.4021 47.7387 25.4554 47.648C25.5141 47.5573 25.5487 47.44 25.5594 47.296C25.5754 47.1467 25.5834 46.96 25.5834 46.736V43.024C25.3007 43.024 25.0634 43.0347 24.8714 43.056C24.6847 43.0773 24.5221 43.1333 24.3834 43.224C24.2447 43.3093 24.1221 43.4427 24.0154 43.624C23.9141 43.8053 23.8127 44.0533 23.7114 44.368L23.6074 44.336L23.7194 42.768C23.9434 42.7787 24.1647 42.7867 24.3834 42.792C24.6021 42.7973 24.8234 42.8 25.0474 42.8H26.9274C27.1407 42.8 27.3514 42.7973 27.5594 42.792C27.7674 42.7867 27.9781 42.7787 28.1914 42.768L28.3034 44.336L28.1994 44.368C28.0981 44.0533 27.9941 43.8053 27.8874 43.624C27.7861 43.4427 27.6661 43.3093 27.5274 43.224C27.3887 43.1333 27.2207 43.0773 27.0234 43.056C26.8314 43.0347 26.5914 43.024 26.3034 43.024V46.736C26.3034 46.96 26.3087 47.1467 26.3194 47.296C26.3354 47.44 26.3701 47.5573 26.4234 47.648C26.4821 47.7387 26.5674 47.8053 26.6794 47.848C26.7914 47.8907 26.9461 47.92 27.1434 47.936V48.032C26.9407 48.0213 26.7381 48.0133 26.5354 48.008C26.3327 48.0027 26.1301 48 25.9274 48C25.7301 48 25.5354 48.0027 25.3434 48.008C25.1514 48.0133 24.9594 48.0213 24.7674 48.032V47.936Z" fill="black"/>
<path d="M28.9229 47.936C29.1149 47.92 29.2642 47.8907 29.3709 47.848C29.4776 47.8053 29.5576 47.7387 29.6109 47.648C29.6696 47.5573 29.7042 47.44 29.7149 47.296C29.7309 47.1467 29.7389 46.96 29.7389 46.736V44.064C29.7389 43.84 29.7309 43.656 29.7149 43.512C29.7042 43.3627 29.6696 43.2427 29.6109 43.152C29.5576 43.0613 29.4749 42.9947 29.3629 42.952C29.2509 42.9093 29.0989 42.88 28.9069 42.864V42.768C29.1309 42.7787 29.3469 42.7867 29.5549 42.792C29.7682 42.7973 29.9869 42.8 30.2109 42.8C30.3869 42.8 30.5629 42.7973 30.7389 42.792C30.9149 42.7867 31.0882 42.7787 31.2589 42.768V42.864C31.0722 42.88 30.9256 42.9093 30.8189 42.952C30.7122 42.9947 30.6322 43.0613 30.5789 43.152C30.5256 43.2427 30.4909 43.3627 30.4749 43.512C30.4642 43.656 30.4589 43.84 30.4589 44.064V46.736C30.4589 46.96 30.4642 47.1467 30.4749 47.296C30.4909 47.44 30.5256 47.5573 30.5789 47.648C30.6376 47.7387 30.7229 47.8053 30.8349 47.848C30.9469 47.8907 31.1016 47.92 31.2989 47.936V48.032C31.0962 48.0213 30.8936 48.0133 30.6909 48.008C30.4882 48.0027 30.2856 48 30.0829 48C29.8856 48 29.6909 48.0027 29.4989 48.008C29.3069 48.0133 29.1149 48.0213 28.9229 48.032V47.936Z" fill="black"/>
<path d="M35.5843 44.288C35.5149 44.1173 35.4243 43.9493 35.3123 43.784C35.2056 43.6133 35.0803 43.464 34.9363 43.336C34.7923 43.2027 34.6323 43.096 34.4563 43.016C34.2803 42.936 34.0883 42.896 33.8803 42.896C33.5763 42.896 33.3256 42.952 33.1283 43.064C32.9363 43.176 32.8403 43.376 32.8403 43.664C32.8403 43.8347 32.8829 43.984 32.9683 44.112C33.0589 44.2347 33.1763 44.344 33.3203 44.44C33.4696 44.536 33.6376 44.624 33.8243 44.704C34.0109 44.784 34.2003 44.8667 34.3923 44.952C34.5896 45.032 34.7816 45.12 34.9683 45.216C35.1549 45.312 35.3203 45.4267 35.4643 45.56C35.6136 45.6933 35.7309 45.848 35.8163 46.024C35.9069 46.2 35.9523 46.4107 35.9523 46.656C35.9523 46.9173 35.9043 47.144 35.8083 47.336C35.7123 47.5227 35.5816 47.6773 35.4163 47.8C35.2563 47.9227 35.0669 48.0133 34.8483 48.072C34.6349 48.1307 34.4056 48.16 34.1603 48.16C34.0269 48.16 33.8883 48.1467 33.7443 48.12C33.6003 48.0987 33.4616 48.072 33.3283 48.04C33.1949 48.0133 33.0723 47.9893 32.9603 47.968C32.8536 47.9413 32.7683 47.928 32.7043 47.928C32.6456 47.928 32.5896 47.9387 32.5363 47.96C32.4829 47.976 32.4269 47.9947 32.3683 48.016C32.3203 47.712 32.2643 47.416 32.2003 47.128C32.1363 46.8347 32.0696 46.536 32.0003 46.232L32.1043 46.176C32.2003 46.3627 32.3149 46.5573 32.4483 46.76C32.5869 46.9627 32.7416 47.1493 32.9123 47.32C33.0829 47.4853 33.2696 47.624 33.4723 47.736C33.6803 47.848 33.9043 47.904 34.1443 47.904C34.2989 47.904 34.4483 47.888 34.5923 47.856C34.7363 47.8187 34.8616 47.7627 34.9683 47.688C35.0803 47.6133 35.1683 47.5173 35.2323 47.4C35.2963 47.2773 35.3283 47.128 35.3283 46.952C35.3283 46.7013 35.2509 46.4933 35.0963 46.328C34.9416 46.1573 34.7496 46.0107 34.5203 45.888C34.2909 45.76 34.0403 45.6427 33.7683 45.536C33.5016 45.4293 33.2536 45.3093 33.0243 45.176C32.7949 45.0427 32.6029 44.8853 32.4483 44.704C32.2936 44.5227 32.2163 44.2933 32.2163 44.016C32.2163 43.808 32.2563 43.6187 32.3363 43.448C32.4163 43.2773 32.5229 43.1333 32.6563 43.016C32.7949 42.8933 32.9523 42.8 33.1283 42.736C33.3096 42.672 33.5016 42.64 33.7043 42.64C33.9016 42.64 34.0776 42.6533 34.2323 42.68C34.3923 42.7067 34.5469 42.736 34.6963 42.768C34.8509 42.8 35.0029 42.832 35.1523 42.864C35.3016 42.8907 35.4616 42.904 35.6323 42.904C35.6323 43.144 35.6349 43.3787 35.6403 43.608C35.6509 43.832 35.6696 44.0587 35.6963 44.288H35.5843Z" fill="black"/>
<path d="M41.2145 44.064C41.2145 43.84 41.2065 43.656 41.1905 43.512C41.1798 43.3627 41.1451 43.2427 41.0865 43.152C41.0331 43.0613 40.9505 42.9947 40.8385 42.952C40.7265 42.9093 40.5745 42.88 40.3825 42.864V42.768C40.6065 42.7787 40.8225 42.7867 41.0305 42.792C41.2438 42.7973 41.4625 42.8 41.6865 42.8C41.8625 42.8 42.0385 42.7973 42.2145 42.792C42.3905 42.7867 42.5638 42.7787 42.7345 42.768V42.864C42.5478 42.88 42.4011 42.9093 42.2945 42.952C42.1878 42.9947 42.1078 43.0613 42.0545 43.152C42.0011 43.2427 41.9665 43.3627 41.9505 43.512C41.9398 43.656 41.9345 43.84 41.9345 44.064V46.736C41.9345 46.96 41.9398 47.1467 41.9505 47.296C41.9665 47.44 42.0011 47.5573 42.0545 47.648C42.1131 47.7387 42.1985 47.8053 42.3105 47.848C42.4225 47.8907 42.5771 47.92 42.7745 47.936V48.032C42.5718 48.0213 42.3691 48.0133 42.1665 48.008C41.9638 48.0027 41.7611 48 41.5585 48C41.3611 48 41.1665 48.0027 40.9745 48.008C40.7825 48.0133 40.5905 48.0213 40.3985 48.032V47.936C40.5905 47.92 40.7398 47.8907 40.8465 47.848C40.9531 47.8053 41.0331 47.7387 41.0865 47.648C41.1451 47.5573 41.1798 47.44 41.1905 47.296C41.2065 47.1467 41.2145 46.96 41.2145 46.736V45.296H38.2465V46.736C38.2465 46.96 38.2518 47.1467 38.2625 47.296C38.2785 47.44 38.3131 47.5573 38.3665 47.648C38.4251 47.7387 38.5105 47.8053 38.6225 47.848C38.7345 47.8907 38.8891 47.92 39.0865 47.936V48.032C38.8838 48.0213 38.6811 48.0133 38.4785 48.008C38.2758 48.0027 38.0731 48 37.8705 48C37.6731 48 37.4785 48.0027 37.2865 48.008C37.0945 48.0133 36.9025 48.0213 36.7105 48.032V47.936C36.9025 47.92 37.0518 47.8907 37.1585 47.848C37.2651 47.8053 37.3451 47.7387 37.3985 47.648C37.4571 47.5573 37.4918 47.44 37.5025 47.296C37.5185 47.1467 37.5265 46.96 37.5265 46.736V44.064C37.5265 43.84 37.5185 43.656 37.5025 43.512C37.4918 43.3627 37.4571 43.2427 37.3985 43.152C37.3451 43.0613 37.2625 42.9947 37.1505 42.952C37.0385 42.9093 36.8865 42.88 36.6945 42.864V42.768C36.9185 42.7787 37.1345 42.7867 37.3425 42.792C37.5558 42.7973 37.7745 42.8 37.9985 42.8C38.1745 42.8 38.3505 42.7973 38.5265 42.792C38.7025 42.7867 38.8758 42.7787 39.0465 42.768V42.864C38.8598 42.88 38.7131 42.9093 38.6065 42.952C38.4998 42.9947 38.4198 43.0613 38.3665 43.152C38.3131 43.2427 38.2785 43.3627 38.2625 43.512C38.2518 43.656 38.2465 43.84 38.2465 44.064V45.04H41.2145V44.064Z" fill="black"/>
<path d="M45.3745 47.936C45.5505 47.92 45.6892 47.8907 45.7905 47.848C45.8972 47.8053 45.9772 47.7573 46.0305 47.704C46.0892 47.6453 46.1265 47.584 46.1425 47.52C46.1585 47.456 46.1665 47.392 46.1665 47.328V43.632C46.1665 43.5147 46.1585 43.4133 46.1425 43.328C46.1319 43.2373 46.0999 43.16 46.0465 43.096C45.9932 43.032 45.9132 42.9813 45.8065 42.944C45.6999 42.9067 45.5559 42.88 45.3745 42.864V42.768C45.5132 42.7787 45.6519 42.7867 45.7905 42.792C45.9292 42.7973 46.0679 42.8 46.2065 42.8C46.5799 42.8 46.9265 42.7813 47.2465 42.744C47.5665 42.7067 47.8945 42.688 48.2305 42.688C48.6625 42.688 49.0679 42.7547 49.4465 42.888C49.8252 43.0213 50.1559 43.2133 50.4385 43.464C50.7265 43.7093 50.9532 44.008 51.1185 44.36C51.2839 44.712 51.3665 45.1067 51.3665 45.544C51.3665 45.9867 51.2865 46.3653 51.1265 46.68C50.9665 46.9893 50.7532 47.2453 50.4865 47.448C50.2199 47.6453 49.9132 47.7893 49.5665 47.88C49.2252 47.9707 48.8679 48.016 48.4945 48.016C48.2065 48.016 47.9585 48.0133 47.7505 48.008C47.5479 48.008 47.3692 48.008 47.2145 48.008C47.0599 48.008 46.9212 48.0053 46.7985 48C46.6759 48 46.5585 48 46.4465 48C46.2652 48 46.0865 48.0027 45.9105 48.008C45.7345 48.0133 45.5559 48.0213 45.3745 48.032V47.936ZM46.8865 47.392C47.0572 47.552 47.2519 47.664 47.4705 47.728C47.6945 47.792 47.9185 47.824 48.1425 47.824C48.9639 47.824 49.5612 47.6133 49.9345 47.192C50.3132 46.7707 50.5025 46.16 50.5025 45.36C50.5025 45.0133 50.4385 44.6907 50.3105 44.392C50.1879 44.088 50.0145 43.824 49.7905 43.6C49.5719 43.376 49.3079 43.2 48.9985 43.072C48.6945 42.944 48.3612 42.88 47.9985 42.88C47.6252 42.88 47.2705 42.9547 46.9345 43.104C46.9132 43.3813 46.8999 43.6587 46.8945 43.936C46.8892 44.208 46.8865 44.488 46.8865 44.776V47.392Z" fill="black"/>
<path d="M53.5666 47.688C53.6146 47.6987 53.6733 47.7093 53.7426 47.72C53.8119 47.7307 53.8866 47.7413 53.9666 47.752C54.0466 47.7627 54.1293 47.7733 54.2146 47.784C54.2999 47.7893 54.3799 47.792 54.4546 47.792C54.7746 47.792 55.0599 47.7653 55.3106 47.712C55.5666 47.6587 55.7986 47.5733 56.0066 47.456C56.2199 47.3387 56.4199 47.1893 56.6066 47.008C56.7933 46.8267 56.9826 46.608 57.1746 46.352L57.2626 46.424L56.5346 48.032C56.4439 48.0213 56.3506 48.0133 56.2546 48.008C56.1586 48.0027 56.0653 48 55.9746 48H52.9666C52.8119 48 52.6573 48.0027 52.5026 48.008C52.3479 48.0133 52.1933 48.0213 52.0386 48.032V47.936C52.2306 47.92 52.3799 47.8907 52.4866 47.848C52.5933 47.8053 52.6733 47.7387 52.7266 47.648C52.7799 47.5573 52.8119 47.44 52.8226 47.296C52.8386 47.1467 52.8466 46.96 52.8466 46.736V44.064C52.8466 43.84 52.8386 43.656 52.8226 43.512C52.8119 43.3627 52.7799 43.2427 52.7266 43.152C52.6733 43.0613 52.5906 42.9947 52.4786 42.952C52.3666 42.9093 52.2146 42.88 52.0226 42.864V42.768C52.2039 42.7733 52.3746 42.7787 52.5346 42.784C52.6999 42.7893 52.8679 42.7947 53.0386 42.8C53.2146 42.8 53.3986 42.8 53.5906 42.8C53.7879 42.8 54.0093 42.8 54.2546 42.8C54.6279 42.8 55.0013 42.7973 55.3746 42.792C55.7479 42.7867 56.1266 42.7787 56.5106 42.768C56.5053 42.8267 56.4999 42.8853 56.4946 42.944C56.4946 43.0027 56.4946 43.0587 56.4946 43.112V43.432C56.4946 43.5493 56.4999 43.6693 56.5106 43.792C56.5213 43.9093 56.5319 44.04 56.5426 44.184L56.4386 44.216C56.3693 43.96 56.2759 43.752 56.1586 43.592C56.0466 43.4267 55.9133 43.2987 55.7586 43.208C55.6093 43.1173 55.4439 43.056 55.2626 43.024C55.0813 42.992 54.8893 42.976 54.6866 42.976C54.3133 42.976 53.9399 42.992 53.5666 43.024V45.024C53.6733 45.024 53.7746 45.0213 53.8706 45.016C53.9719 45.0107 54.0759 45.008 54.1826 45.008C54.5506 45.008 54.8413 44.936 55.0546 44.792C55.2733 44.6427 55.4066 44.3733 55.4546 43.984H55.5506C55.5506 44.176 55.5479 44.368 55.5426 44.56C55.5373 44.752 55.5346 44.9413 55.5346 45.128C55.5346 45.32 55.5373 45.512 55.5426 45.704C55.5479 45.896 55.5506 46.088 55.5506 46.28H55.4546C55.4066 46.056 55.3479 45.8747 55.2786 45.736C55.2093 45.592 55.1213 45.4827 55.0146 45.408C54.9133 45.3333 54.7853 45.2827 54.6306 45.256C54.4759 45.2293 54.2919 45.216 54.0786 45.216H53.5666V47.688Z" fill="black"/>
<path d="M61.1312 44.288C61.0618 44.1173 60.9712 43.9493 60.8592 43.784C60.7525 43.6133 60.6272 43.464 60.4832 43.336C60.3392 43.2027 60.1792 43.096 60.0032 43.016C59.8272 42.936 59.6352 42.896 59.4272 42.896C59.1232 42.896 58.8725 42.952 58.6752 43.064C58.4832 43.176 58.3872 43.376 58.3872 43.664C58.3872 43.8347 58.4298 43.984 58.5152 44.112C58.6058 44.2347 58.7232 44.344 58.8672 44.44C59.0165 44.536 59.1845 44.624 59.3712 44.704C59.5578 44.784 59.7472 44.8667 59.9392 44.952C60.1365 45.032 60.3285 45.12 60.5152 45.216C60.7018 45.312 60.8672 45.4267 61.0112 45.56C61.1605 45.6933 61.2778 45.848 61.3632 46.024C61.4538 46.2 61.4992 46.4107 61.4992 46.656C61.4992 46.9173 61.4512 47.144 61.3552 47.336C61.2592 47.5227 61.1285 47.6773 60.9632 47.8C60.8032 47.9227 60.6138 48.0133 60.3952 48.072C60.1818 48.1307 59.9525 48.16 59.7072 48.16C59.5738 48.16 59.4352 48.1467 59.2912 48.12C59.1472 48.0987 59.0085 48.072 58.8752 48.04C58.7418 48.0133 58.6192 47.9893 58.5072 47.968C58.4005 47.9413 58.3152 47.928 58.2512 47.928C58.1925 47.928 58.1365 47.9387 58.0832 47.96C58.0298 47.976 57.9738 47.9947 57.9152 48.016C57.8672 47.712 57.8112 47.416 57.7472 47.128C57.6832 46.8347 57.6165 46.536 57.5472 46.232L57.6512 46.176C57.7472 46.3627 57.8618 46.5573 57.9952 46.76C58.1338 46.9627 58.2885 47.1493 58.4592 47.32C58.6298 47.4853 58.8165 47.624 59.0192 47.736C59.2272 47.848 59.4512 47.904 59.6912 47.904C59.8458 47.904 59.9952 47.888 60.1392 47.856C60.2832 47.8187 60.4085 47.7627 60.5152 47.688C60.6272 47.6133 60.7152 47.5173 60.7792 47.4C60.8432 47.2773 60.8752 47.128 60.8752 46.952C60.8752 46.7013 60.7978 46.4933 60.6432 46.328C60.4885 46.1573 60.2965 46.0107 60.0672 45.888C59.8378 45.76 59.5872 45.6427 59.3152 45.536C59.0485 45.4293 58.8005 45.3093 58.5712 45.176C58.3418 45.0427 58.1498 44.8853 57.9952 44.704C57.8405 44.5227 57.7632 44.2933 57.7632 44.016C57.7632 43.808 57.8032 43.6187 57.8832 43.448C57.9632 43.2773 58.0698 43.1333 58.2032 43.016C58.3418 42.8933 58.4992 42.8 58.6752 42.736C58.8565 42.672 59.0485 42.64 59.2512 42.64C59.4485 42.64 59.6245 42.6533 59.7792 42.68C59.9392 42.7067 60.0938 42.736 60.2432 42.768C60.3978 42.8 60.5498 42.832 60.6992 42.864C60.8485 42.8907 61.0085 42.904 61.1792 42.904C61.1792 43.144 61.1818 43.3787 61.1872 43.608C61.1978 43.832 61.2165 44.0587 61.2432 44.288H61.1312Z" fill="black"/>
<path d="M62.3213 47.936C62.5133 47.92 62.6627 47.8907 62.7693 47.848C62.876 47.8053 62.956 47.7387 63.0093 47.648C63.068 47.5573 63.1027 47.44 63.1133 47.296C63.1293 47.1467 63.1373 46.96 63.1373 46.736V44.064C63.1373 43.84 63.1293 43.656 63.1133 43.512C63.1027 43.3627 63.068 43.2427 63.0093 43.152C62.956 43.0613 62.8733 42.9947 62.7613 42.952C62.6493 42.9093 62.4973 42.88 62.3053 42.864V42.768C62.5293 42.7787 62.7453 42.7867 62.9533 42.792C63.1667 42.7973 63.3853 42.8 63.6093 42.8C63.7853 42.8 63.9613 42.7973 64.1373 42.792C64.3133 42.7867 64.4867 42.7787 64.6573 42.768V42.864C64.4707 42.88 64.324 42.9093 64.2173 42.952C64.1107 42.9947 64.0307 43.0613 63.9773 43.152C63.924 43.2427 63.8893 43.3627 63.8733 43.512C63.8627 43.656 63.8573 43.84 63.8573 44.064V46.736C63.8573 46.96 63.8627 47.1467 63.8733 47.296C63.8893 47.44 63.924 47.5573 63.9773 47.648C64.036 47.7387 64.1213 47.8053 64.2333 47.848C64.3453 47.8907 64.5 47.92 64.6973 47.936V48.032C64.4947 48.0213 64.292 48.0133 64.0893 48.008C63.8867 48.0027 63.684 48 63.4813 48C63.284 48 63.0893 48.0027 62.8973 48.008C62.7053 48.0133 62.5133 48.0213 62.3213 48.032V47.936Z" fill="black"/>
<path d="M70.2067 44.48C70.1054 44.2773 69.9961 44.08 69.8787 43.888C69.7667 43.696 69.6361 43.5253 69.4867 43.376C69.3374 43.2267 69.1641 43.1067 68.9667 43.016C68.7747 42.9253 68.5481 42.88 68.2867 42.88C67.9827 42.88 67.7107 42.9547 67.4707 43.104C67.2361 43.2533 67.0334 43.448 66.8627 43.688C66.6974 43.928 66.5694 44.1973 66.4787 44.496C66.3934 44.7947 66.3507 45.0933 66.3507 45.392C66.3507 45.728 66.3934 46.048 66.4787 46.352C66.5694 46.6507 66.6974 46.912 66.8627 47.136C67.0334 47.36 67.2361 47.5387 67.4707 47.672C67.7107 47.8053 67.9827 47.872 68.2867 47.872C68.5427 47.872 68.7934 47.848 69.0387 47.8C69.2841 47.7467 69.5134 47.6427 69.7267 47.488V46.456C69.7267 46.0933 69.4521 45.904 68.9027 45.888V45.792C69.1054 45.7973 69.2921 45.8053 69.4627 45.816C69.6334 45.8213 69.8254 45.824 70.0387 45.824C70.2361 45.824 70.4334 45.8213 70.6307 45.816C70.8281 45.8107 71.0254 45.8027 71.2227 45.792V45.888C71.1107 45.8933 71.0067 45.9067 70.9107 45.928C70.8147 45.9493 70.7321 45.984 70.6627 46.032C70.5987 46.08 70.5454 46.1467 70.5027 46.232C70.4654 46.312 70.4467 46.416 70.4467 46.544V47.664C70.0787 47.7867 69.7134 47.8987 69.3507 48C68.9934 48.1067 68.6467 48.16 68.3107 48.16C67.9534 48.16 67.6041 48.1013 67.2627 47.984C66.9214 47.8613 66.6147 47.6827 66.3427 47.448C66.0761 47.2133 65.8601 46.9253 65.6947 46.584C65.5347 46.2427 65.4547 45.848 65.4547 45.4C65.4547 45.0107 65.5347 44.648 65.6947 44.312C65.8601 43.9707 66.0761 43.6773 66.3427 43.432C66.6147 43.1867 66.9214 42.9947 67.2627 42.856C67.6041 42.712 67.9534 42.64 68.3107 42.64C68.5294 42.64 68.7267 42.6507 68.9027 42.672C69.0787 42.688 69.2387 42.712 69.3827 42.744C69.5267 42.7707 69.6574 42.8 69.7747 42.832C69.8921 42.864 70.0041 42.8933 70.1107 42.92C70.1107 43.0053 70.1161 43.12 70.1267 43.264C70.1427 43.4027 70.1614 43.5493 70.1827 43.704C70.2041 43.8533 70.2254 44 70.2467 44.144C70.2681 44.2827 70.2867 44.3947 70.3027 44.48H70.2067Z" fill="black"/>
<path d="M71.4093 42.768C71.596 42.7787 71.772 42.7867 71.9373 42.792C72.108 42.7973 72.3053 42.8 72.5293 42.8C72.6466 42.8 72.7613 42.7973 72.8733 42.792C72.9853 42.7867 73.1 42.7787 73.2173 42.768C73.2866 42.864 73.4013 43.0107 73.5613 43.208C73.7213 43.4 73.9026 43.6213 74.1053 43.872C74.3133 44.1227 74.5346 44.3893 74.7693 44.672C75.004 44.9547 75.2306 45.232 75.4493 45.504C75.668 45.7707 75.868 46.0213 76.0493 46.256C76.236 46.4853 76.3826 46.6747 76.4893 46.824H76.5053C76.5053 46.664 76.5053 46.5067 76.5053 46.352C76.5106 46.192 76.5133 46.032 76.5133 45.872V44.944C76.5133 44.6027 76.5 44.3067 76.4733 44.056C76.452 43.8 76.404 43.5867 76.3293 43.416C76.26 43.2453 76.1586 43.1147 76.0253 43.024C75.8973 42.9333 75.7266 42.88 75.5133 42.864V42.768C75.7 42.7787 75.8866 42.7867 76.0733 42.792C76.2653 42.7973 76.4546 42.8 76.6413 42.8C76.812 42.8 76.9853 42.7973 77.1613 42.792C77.3373 42.7867 77.5106 42.7787 77.6813 42.768V42.864C77.3453 42.9067 77.1133 43.0053 76.9853 43.16C76.8626 43.3093 76.8013 43.5413 76.8013 43.856V48.096H76.5053C76.212 47.6373 75.9 47.192 75.5693 46.76C75.244 46.328 74.9186 45.9173 74.5933 45.528C74.2733 45.1387 73.9613 44.7787 73.6573 44.448C73.3586 44.112 73.0893 43.8133 72.8493 43.552C72.844 43.6907 72.8386 43.8267 72.8333 43.96C72.8333 44.0933 72.8333 44.2293 72.8333 44.368V45.768C72.8333 46.2427 72.8413 46.6187 72.8573 46.896C72.8786 47.168 72.924 47.3787 72.9933 47.528C73.068 47.672 73.1746 47.7707 73.3133 47.824C73.4573 47.872 73.6546 47.9093 73.9053 47.936V48.032C73.6333 48.0213 73.3693 48.0133 73.1133 48.008C72.8573 48.0027 72.5933 48 72.3213 48C72.1666 48 72.0146 48.0027 71.8653 48.008C71.716 48.0133 71.564 48.0213 71.4093 48.032V47.936C71.5906 47.9093 71.748 47.8853 71.8813 47.864C72.02 47.8373 72.132 47.7973 72.2173 47.744C72.308 47.6853 72.3746 47.6053 72.4173 47.504C72.4653 47.3973 72.492 47.2507 72.4973 47.064L72.5933 43.392C72.4226 43.2533 72.236 43.144 72.0333 43.064C71.8306 42.984 71.6226 42.9173 71.4093 42.864V42.768Z" fill="black"/>
<path d="M235.34 44.48C235.238 44.2773 235.129 44.08 235.012 43.888C234.9 43.696 234.769 43.5253 234.62 43.376C234.47 43.2267 234.297 43.1067 234.1 43.016C233.908 42.9253 233.681 42.88 233.42 42.88C233.116 42.88 232.844 42.9547 232.604 43.104C232.369 43.2533 232.166 43.448 231.996 43.688C231.83 43.928 231.702 44.1973 231.612 44.496C231.526 44.7947 231.484 45.0933 231.484 45.392C231.484 45.728 231.526 46.048 231.612 46.352C231.702 46.6507 231.83 46.912 231.996 47.136C232.166 47.36 232.369 47.5387 232.604 47.672C232.844 47.8053 233.116 47.872 233.42 47.872C233.676 47.872 233.926 47.848 234.172 47.8C234.417 47.7467 234.646 47.6427 234.86 47.488V46.456C234.86 46.0933 234.585 45.904 234.036 45.888V45.792C234.238 45.7973 234.425 45.8053 234.596 45.816C234.766 45.8213 234.958 45.824 235.172 45.824C235.369 45.824 235.566 45.8213 235.764 45.816C235.961 45.8107 236.158 45.8027 236.356 45.792V45.888C236.244 45.8933 236.14 45.9067 236.044 45.928C235.948 45.9493 235.865 45.984 235.796 46.032C235.732 46.08 235.678 46.1467 235.636 46.232C235.598 46.312 235.58 46.416 235.58 46.544V47.664C235.212 47.7867 234.846 47.8987 234.484 48C234.126 48.1067 233.78 48.16 233.444 48.16C233.086 48.16 232.737 48.1013 232.396 47.984C232.054 47.8613 231.748 47.6827 231.476 47.448C231.209 47.2133 230.993 46.9253 230.828 46.584C230.668 46.2427 230.588 45.848 230.588 45.4C230.588 45.0107 230.668 44.648 230.828 44.312C230.993 43.9707 231.209 43.6773 231.476 43.432C231.748 43.1867 232.054 42.9947 232.396 42.856C232.737 42.712 233.086 42.64 233.444 42.64C233.662 42.64 233.86 42.6507 234.036 42.672C234.212 42.688 234.372 42.712 234.516 42.744C234.66 42.7707 234.79 42.8 234.908 42.832C235.025 42.864 235.137 42.8933 235.244 42.92C235.244 43.0053 235.249 43.12 235.26 43.264C235.276 43.4027 235.294 43.5493 235.316 43.704C235.337 43.8533 235.358 44 235.38 44.144C235.401 44.2827 235.42 44.3947 235.436 44.48H235.34Z" fill="black"/>
<path d="M238.254 47.688C238.302 47.6987 238.361 47.7093 238.43 47.72C238.499 47.7307 238.574 47.7413 238.654 47.752C238.734 47.7627 238.817 47.7733 238.902 47.784C238.987 47.7893 239.067 47.792 239.142 47.792C239.462 47.792 239.747 47.7653 239.998 47.712C240.254 47.6587 240.486 47.5733 240.694 47.456C240.907 47.3387 241.107 47.1893 241.294 47.008C241.481 46.8267 241.67 46.608 241.862 46.352L241.95 46.424L241.222 48.032C241.131 48.0213 241.038 48.0133 240.942 48.008C240.846 48.0027 240.753 48 240.662 48H237.654C237.499 48 237.345 48.0027 237.19 48.008C237.035 48.0133 236.881 48.0213 236.726 48.032V47.936C236.918 47.92 237.067 47.8907 237.174 47.848C237.281 47.8053 237.361 47.7387 237.414 47.648C237.467 47.5573 237.499 47.44 237.51 47.296C237.526 47.1467 237.534 46.96 237.534 46.736V44.064C237.534 43.84 237.526 43.656 237.51 43.512C237.499 43.3627 237.467 43.2427 237.414 43.152C237.361 43.0613 237.278 42.9947 237.166 42.952C237.054 42.9093 236.902 42.88 236.71 42.864V42.768C236.891 42.7733 237.062 42.7787 237.222 42.784C237.387 42.7893 237.555 42.7947 237.726 42.8C237.902 42.8 238.086 42.8 238.278 42.8C238.475 42.8 238.697 42.8 238.942 42.8C239.315 42.8 239.689 42.7973 240.062 42.792C240.435 42.7867 240.814 42.7787 241.198 42.768C241.193 42.8267 241.187 42.8853 241.182 42.944C241.182 43.0027 241.182 43.0587 241.182 43.112V43.432C241.182 43.5493 241.187 43.6693 241.198 43.792C241.209 43.9093 241.219 44.04 241.23 44.184L241.126 44.216C241.057 43.96 240.963 43.752 240.846 43.592C240.734 43.4267 240.601 43.2987 240.446 43.208C240.297 43.1173 240.131 43.056 239.95 43.024C239.769 42.992 239.577 42.976 239.374 42.976C239.001 42.976 238.627 42.992 238.254 43.024V45.024C238.361 45.024 238.462 45.0213 238.558 45.016C238.659 45.0107 238.763 45.008 238.87 45.008C239.238 45.008 239.529 44.936 239.742 44.792C239.961 44.6427 240.094 44.3733 240.142 43.984H240.238C240.238 44.176 240.235 44.368 240.23 44.56C240.225 44.752 240.222 44.9413 240.222 45.128C240.222 45.32 240.225 45.512 240.23 45.704C240.235 45.896 240.238 46.088 240.238 46.28H240.142C240.094 46.056 240.035 45.8747 239.966 45.736C239.897 45.592 239.809 45.4827 239.702 45.408C239.601 45.3333 239.473 45.2827 239.318 45.256C239.163 45.2293 238.979 45.216 238.766 45.216H238.254V47.688Z" fill="black"/>
<path d="M247.795 48H246.355C246.019 47.632 245.707 47.256 245.419 46.872C245.136 46.4827 244.883 46.072 244.659 45.64C244.605 45.64 244.536 45.6347 244.451 45.624C244.371 45.6133 244.285 45.6027 244.195 45.592C244.109 45.576 244.024 45.56 243.939 45.544C243.859 45.5227 243.792 45.504 243.739 45.488V46.736C243.739 46.96 243.744 47.1467 243.755 47.296C243.771 47.44 243.805 47.5573 243.859 47.648C243.917 47.7387 244.003 47.8053 244.115 47.848C244.227 47.8907 244.381 47.92 244.579 47.936V48.032C244.376 48.0213 244.173 48.0133 243.971 48.008C243.768 48.0027 243.565 48 243.363 48C243.165 48 242.971 48.0027 242.779 48.008C242.587 48.0133 242.395 48.0213 242.203 48.032V47.936C242.395 47.92 242.544 47.8907 242.651 47.848C242.757 47.8053 242.837 47.7387 242.891 47.648C242.949 47.5573 242.984 47.44 242.995 47.296C243.011 47.1467 243.019 46.96 243.019 46.736V44.064C243.019 43.84 243.011 43.656 242.995 43.512C242.984 43.3627 242.949 43.2427 242.891 43.152C242.837 43.0613 242.757 42.9947 242.651 42.952C242.544 42.9093 242.395 42.88 242.203 42.864V42.768C242.373 42.7787 242.544 42.7867 242.715 42.792C242.885 42.7973 243.056 42.8 243.227 42.8C243.301 42.8 243.395 42.7973 243.507 42.792C243.619 42.7813 243.736 42.7707 243.859 42.76C243.987 42.7493 244.115 42.7413 244.243 42.736C244.371 42.7253 244.485 42.72 244.587 42.72C244.816 42.72 245.051 42.7493 245.291 42.808C245.531 42.8667 245.747 42.96 245.939 43.088C246.131 43.216 246.288 43.3787 246.411 43.576C246.533 43.7733 246.595 44.008 246.595 44.28C246.595 44.4667 246.56 44.632 246.491 44.776C246.427 44.92 246.339 45.0453 246.227 45.152C246.115 45.2587 245.981 45.3467 245.827 45.416C245.677 45.4853 245.52 45.536 245.355 45.568C245.429 45.696 245.517 45.84 245.619 46C245.72 46.16 245.832 46.3227 245.955 46.488C246.083 46.6533 246.216 46.8187 246.355 46.984C246.499 47.144 246.648 47.2907 246.803 47.424C246.963 47.552 247.125 47.6613 247.291 47.752C247.456 47.8373 247.624 47.888 247.795 47.904V48ZM243.739 45.216C243.979 45.3067 244.227 45.352 244.483 45.352C244.899 45.352 245.221 45.256 245.451 45.064C245.68 44.872 245.795 44.56 245.795 44.128C245.795 43.952 245.76 43.7947 245.691 43.656C245.627 43.512 245.536 43.3893 245.419 43.288C245.301 43.1813 245.165 43.1013 245.011 43.048C244.861 42.9893 244.704 42.96 244.539 42.96C244.405 42.96 244.275 42.9653 244.147 42.976C244.019 42.9867 243.893 43.0107 243.771 43.048C243.76 43.304 243.752 43.5627 243.747 43.824C243.741 44.0853 243.739 44.368 243.739 44.672V45.216Z" fill="black"/>
<path d="M252.536 42.768C252.728 42.7787 252.92 42.7867 253.112 42.792C253.304 42.7973 253.496 42.8 253.688 42.8C253.859 42.8 254.027 42.7973 254.192 42.792C254.363 42.7867 254.533 42.7787 254.704 42.768V42.864C254.48 42.896 254.296 42.96 254.152 43.056C254.008 43.152 253.936 43.3253 253.936 43.576C253.936 43.7093 253.955 43.928 253.992 44.232C254.035 44.5307 254.085 44.8587 254.144 45.216C254.208 45.5733 254.272 45.9307 254.336 46.288C254.405 46.6453 254.469 46.9493 254.528 47.2C254.555 47.3067 254.584 47.4 254.616 47.48C254.648 47.56 254.693 47.632 254.752 47.696C254.811 47.7547 254.893 47.8053 255 47.848C255.107 47.8853 255.248 47.9147 255.424 47.936V48.032C255.211 48.0213 254.997 48.0133 254.784 48.008C254.576 48.0027 254.365 48 254.152 48C253.949 48 253.749 48.0027 253.552 48.008C253.36 48.0133 253.163 48.0213 252.96 48.032V47.936C253.072 47.92 253.179 47.9013 253.28 47.88C253.381 47.8533 253.469 47.816 253.544 47.768C253.624 47.72 253.685 47.656 253.728 47.576C253.771 47.4907 253.792 47.3787 253.792 47.24C253.792 47.176 253.789 47.0907 253.784 46.984C253.779 46.8773 253.763 46.7547 253.736 46.616L253.184 43.392H253.168C253.019 43.776 252.861 44.1573 252.696 44.536C252.531 44.9093 252.368 45.2853 252.208 45.664C252.048 46.0427 251.891 46.4267 251.736 46.816C251.587 47.2 251.451 47.5947 251.328 48H251.312C251.056 47.1733 250.765 46.3787 250.44 45.616C250.12 44.848 249.776 44.08 249.408 43.312H249.392C249.349 43.6053 249.307 43.9307 249.264 44.288C249.221 44.6453 249.181 44.9947 249.144 45.336C249.112 45.672 249.085 45.9813 249.064 46.264C249.043 46.5413 249.032 46.7493 249.032 46.888C249.032 47.064 249.043 47.216 249.064 47.344C249.091 47.472 249.139 47.5787 249.208 47.664C249.277 47.7493 249.371 47.8133 249.488 47.856C249.611 47.8987 249.768 47.9253 249.96 47.936V48.032C249.736 48.0213 249.517 48.0133 249.304 48.008C249.091 48.0027 248.872 48 248.648 48C248.483 48 248.317 48.0027 248.152 48.008C247.992 48.0133 247.829 48.0213 247.664 48.032V47.936C247.776 47.9253 247.885 47.904 247.992 47.872C248.104 47.84 248.205 47.7973 248.296 47.744C248.387 47.6853 248.461 47.6187 248.52 47.544C248.584 47.464 248.624 47.3707 248.64 47.264C248.672 47.0773 248.701 46.8827 248.728 46.68C248.755 46.472 248.781 46.2667 248.808 46.064L249.192 43.216C249.08 43.1253 248.947 43.0507 248.792 42.992C248.637 42.9333 248.483 42.8907 248.328 42.864V42.768C248.557 42.7787 248.784 42.7867 249.008 42.792C249.237 42.7973 249.467 42.8 249.696 42.8C249.861 42.8 250.024 42.7973 250.184 42.792C250.349 42.7867 250.515 42.7787 250.68 42.768V42.864C250.579 42.8907 250.485 42.936 250.4 43C250.315 43.0587 250.272 43.1547 250.272 43.288C250.272 43.3787 250.285 43.4667 250.312 43.552C250.344 43.6373 250.379 43.7253 250.416 43.816L251.544 46.584C251.816 46.0187 252.075 45.4533 252.32 44.888C252.565 44.3173 252.789 43.7333 252.992 43.136C252.933 43.0667 252.864 43.0107 252.784 42.968C252.704 42.9253 252.621 42.8907 252.536 42.864V42.768Z" fill="black"/>
<path d="M257.111 45.688L256.583 47.136C256.567 47.1787 256.551 47.216 256.535 47.248C256.525 47.28 256.519 47.3147 256.519 47.352C256.519 47.448 256.546 47.5307 256.599 47.6C256.658 47.6693 256.727 47.728 256.807 47.776C256.887 47.8187 256.97 47.8533 257.055 47.88C257.141 47.9067 257.213 47.9253 257.271 47.936V48.032C257.111 48.0213 256.951 48.0133 256.791 48.008C256.631 48.0027 256.469 48 256.303 48C256.143 48 255.986 48.0027 255.831 48.008C255.682 48.0133 255.522 48.0213 255.351 48.032V47.936C255.517 47.8987 255.653 47.8427 255.759 47.768C255.871 47.688 255.965 47.5947 256.039 47.488C256.114 47.3813 256.178 47.264 256.231 47.136C256.29 47.008 256.346 46.8747 256.399 46.736L257.783 43.336C257.799 43.2987 257.813 43.264 257.823 43.232C257.839 43.2 257.847 43.1707 257.847 43.144C257.847 43.1173 257.837 43.0773 257.815 43.024C257.799 42.9707 257.778 42.9227 257.751 42.88C257.89 42.8533 258.01 42.8187 258.111 42.776C258.213 42.7333 258.325 42.688 258.447 42.64L260.111 47.216C260.186 47.424 260.29 47.5893 260.423 47.712C260.557 47.8293 260.754 47.904 261.015 47.936V48.032C260.802 48.0213 260.591 48.0133 260.383 48.008C260.181 48.0027 259.967 48 259.743 48C259.599 48 259.474 48 259.367 48C259.261 48 259.165 48 259.079 48C258.994 48.0053 258.911 48.0107 258.831 48.016C258.757 48.0213 258.674 48.0267 258.583 48.032V47.936C258.807 47.9093 258.994 47.8533 259.143 47.768C259.298 47.6773 259.375 47.5573 259.375 47.408C259.375 47.3653 259.365 47.3227 259.343 47.28C259.327 47.2373 259.314 47.1973 259.303 47.16L258.783 45.688H257.111ZM257.975 43.416L257.191 45.448H258.695L257.975 43.416Z" fill="black"/>
<path d="M261.128 42.768C261.315 42.7787 261.491 42.7867 261.656 42.792C261.827 42.7973 262.024 42.8 262.248 42.8C262.365 42.8 262.48 42.7973 262.592 42.792C262.704 42.7867 262.819 42.7787 262.936 42.768C263.005 42.864 263.12 43.0107 263.28 43.208C263.44 43.4 263.621 43.6213 263.824 43.872C264.032 44.1227 264.253 44.3893 264.488 44.672C264.723 44.9547 264.949 45.232 265.168 45.504C265.387 45.7707 265.587 46.0213 265.768 46.256C265.955 46.4853 266.101 46.6747 266.208 46.824H266.224C266.224 46.664 266.224 46.5067 266.224 46.352C266.229 46.192 266.232 46.032 266.232 45.872V44.944C266.232 44.6027 266.219 44.3067 266.192 44.056C266.171 43.8 266.123 43.5867 266.048 43.416C265.979 43.2453 265.877 43.1147 265.744 43.024C265.616 42.9333 265.445 42.88 265.232 42.864V42.768C265.419 42.7787 265.605 42.7867 265.792 42.792C265.984 42.7973 266.173 42.8 266.36 42.8C266.531 42.8 266.704 42.7973 266.88 42.792C267.056 42.7867 267.229 42.7787 267.4 42.768V42.864C267.064 42.9067 266.832 43.0053 266.704 43.16C266.581 43.3093 266.52 43.5413 266.52 43.856V48.096H266.224C265.931 47.6373 265.619 47.192 265.288 46.76C264.963 46.328 264.637 45.9173 264.312 45.528C263.992 45.1387 263.68 44.7787 263.376 44.448C263.077 44.112 262.808 43.8133 262.568 43.552C262.563 43.6907 262.557 43.8267 262.552 43.96C262.552 44.0933 262.552 44.2293 262.552 44.368V45.768C262.552 46.2427 262.56 46.6187 262.576 46.896C262.597 47.168 262.643 47.3787 262.712 47.528C262.787 47.672 262.893 47.7707 263.032 47.824C263.176 47.872 263.373 47.9093 263.624 47.936V48.032C263.352 48.0213 263.088 48.0133 262.832 48.008C262.576 48.0027 262.312 48 262.04 48C261.885 48 261.733 48.0027 261.584 48.008C261.435 48.0133 261.283 48.0213 261.128 48.032V47.936C261.309 47.9093 261.467 47.8853 261.6 47.864C261.739 47.8373 261.851 47.7973 261.936 47.744C262.027 47.6853 262.093 47.6053 262.136 47.504C262.184 47.3973 262.211 47.2507 262.216 47.064L262.312 43.392C262.141 43.2533 261.955 43.144 261.752 43.064C261.549 42.984 261.341 42.9173 261.128 42.864V42.768Z" fill="black"/>
<path d="M274.395 42.768C274.587 42.7787 274.779 42.7867 274.971 42.792C275.163 42.7973 275.355 42.8 275.547 42.8C275.718 42.8 275.886 42.7973 276.051 42.792C276.222 42.7867 276.393 42.7787 276.563 42.768V42.864C276.339 42.896 276.155 42.96 276.011 43.056C275.867 43.152 275.795 43.3253 275.795 43.576C275.795 43.7093 275.814 43.928 275.851 44.232C275.894 44.5307 275.945 44.8587 276.003 45.216C276.067 45.5733 276.131 45.9307 276.195 46.288C276.265 46.6453 276.329 46.9493 276.387 47.2C276.414 47.3067 276.443 47.4 276.475 47.48C276.507 47.56 276.553 47.632 276.611 47.696C276.67 47.7547 276.753 47.8053 276.859 47.848C276.966 47.8853 277.107 47.9147 277.283 47.936V48.032C277.07 48.0213 276.857 48.0133 276.643 48.008C276.435 48.0027 276.225 48 276.011 48C275.809 48 275.609 48.0027 275.411 48.008C275.219 48.0133 275.022 48.0213 274.819 48.032V47.936C274.931 47.92 275.038 47.9013 275.139 47.88C275.241 47.8533 275.329 47.816 275.403 47.768C275.483 47.72 275.545 47.656 275.587 47.576C275.63 47.4907 275.651 47.3787 275.651 47.24C275.651 47.176 275.649 47.0907 275.643 46.984C275.638 46.8773 275.622 46.7547 275.595 46.616L275.043 43.392H275.027C274.878 43.776 274.721 44.1573 274.555 44.536C274.39 44.9093 274.227 45.2853 274.067 45.664C273.907 46.0427 273.75 46.4267 273.595 46.816C273.446 47.2 273.31 47.5947 273.187 48H273.171C272.915 47.1733 272.625 46.3787 272.299 45.616C271.979 44.848 271.635 44.08 271.267 43.312H271.251C271.209 43.6053 271.166 43.9307 271.123 44.288C271.081 44.6453 271.041 44.9947 271.003 45.336C270.971 45.672 270.945 45.9813 270.923 46.264C270.902 46.5413 270.891 46.7493 270.891 46.888C270.891 47.064 270.902 47.216 270.923 47.344C270.95 47.472 270.998 47.5787 271.067 47.664C271.137 47.7493 271.23 47.8133 271.347 47.856C271.47 47.8987 271.627 47.9253 271.819 47.936V48.032C271.595 48.0213 271.377 48.0133 271.163 48.008C270.95 48.0027 270.731 48 270.507 48C270.342 48 270.177 48.0027 270.011 48.008C269.851 48.0133 269.689 48.0213 269.523 48.032V47.936C269.635 47.9253 269.745 47.904 269.851 47.872C269.963 47.84 270.065 47.7973 270.155 47.744C270.246 47.6853 270.321 47.6187 270.379 47.544C270.443 47.464 270.483 47.3707 270.499 47.264C270.531 47.0773 270.561 46.8827 270.587 46.68C270.614 46.472 270.641 46.2667 270.667 46.064L271.051 43.216C270.939 43.1253 270.806 43.0507 270.651 42.992C270.497 42.9333 270.342 42.8907 270.187 42.864V42.768C270.417 42.7787 270.643 42.7867 270.867 42.792C271.097 42.7973 271.326 42.8 271.555 42.8C271.721 42.8 271.883 42.7973 272.043 42.792C272.209 42.7867 272.374 42.7787 272.539 42.768V42.864C272.438 42.8907 272.345 42.936 272.259 43C272.174 43.0587 272.131 43.1547 272.131 43.288C272.131 43.3787 272.145 43.4667 272.171 43.552C272.203 43.6373 272.238 43.7253 272.275 43.816L273.403 46.584C273.675 46.0187 273.934 45.4533 274.179 44.888C274.425 44.3173 274.649 43.7333 274.851 43.136C274.793 43.0667 274.723 43.0107 274.643 42.968C274.563 42.9253 274.481 42.8907 274.395 42.864V42.768Z" fill="black"/>
<path d="M278.971 45.688L278.443 47.136C278.427 47.1787 278.411 47.216 278.395 47.248C278.384 47.28 278.379 47.3147 278.379 47.352C278.379 47.448 278.405 47.5307 278.459 47.6C278.517 47.6693 278.587 47.728 278.667 47.776C278.747 47.8187 278.829 47.8533 278.915 47.88C279 47.9067 279.072 47.9253 279.131 47.936V48.032C278.971 48.0213 278.811 48.0133 278.651 48.008C278.491 48.0027 278.328 48 278.163 48C278.003 48 277.845 48.0027 277.691 48.008C277.541 48.0133 277.381 48.0213 277.211 48.032V47.936C277.376 47.8987 277.512 47.8427 277.619 47.768C277.731 47.688 277.824 47.5947 277.899 47.488C277.973 47.3813 278.037 47.264 278.091 47.136C278.149 47.008 278.205 46.8747 278.259 46.736L279.643 43.336C279.659 43.2987 279.672 43.264 279.683 43.232C279.699 43.2 279.707 43.1707 279.707 43.144C279.707 43.1173 279.696 43.0773 279.675 43.024C279.659 42.9707 279.637 42.9227 279.611 42.88C279.749 42.8533 279.869 42.8187 279.971 42.776C280.072 42.7333 280.184 42.688 280.307 42.64L281.971 47.216C282.045 47.424 282.149 47.5893 282.283 47.712C282.416 47.8293 282.613 47.904 282.875 47.936V48.032C282.661 48.0213 282.451 48.0133 282.243 48.008C282.04 48.0027 281.827 48 281.603 48C281.459 48 281.333 48 281.227 48C281.12 48 281.024 48 280.939 48C280.853 48.0053 280.771 48.0107 280.691 48.016C280.616 48.0213 280.533 48.0267 280.443 48.032V47.936C280.667 47.9093 280.853 47.8533 281.003 47.768C281.157 47.6773 281.235 47.5573 281.235 47.408C281.235 47.3653 281.224 47.3227 281.203 47.28C281.187 47.2373 281.173 47.1973 281.163 47.16L280.643 45.688H278.971ZM279.835 43.416L279.051 45.448H280.555L279.835 43.416Z" fill="black"/>
<path d="M283.171 47.936C283.347 47.92 283.486 47.8907 283.587 47.848C283.694 47.8053 283.774 47.7573 283.827 47.704C283.886 47.6453 283.923 47.584 283.939 47.52C283.955 47.456 283.963 47.392 283.963 47.328V43.632C283.963 43.5147 283.955 43.4133 283.939 43.328C283.929 43.2373 283.897 43.16 283.843 43.096C283.79 43.032 283.71 42.9813 283.603 42.944C283.497 42.9067 283.353 42.88 283.171 42.864V42.768C283.31 42.7787 283.449 42.7867 283.587 42.792C283.726 42.7973 283.865 42.8 284.003 42.8C284.377 42.8 284.723 42.7813 285.043 42.744C285.363 42.7067 285.691 42.688 286.027 42.688C286.459 42.688 286.865 42.7547 287.243 42.888C287.622 43.0213 287.953 43.2133 288.235 43.464C288.523 43.7093 288.75 44.008 288.915 44.36C289.081 44.712 289.163 45.1067 289.163 45.544C289.163 45.9867 289.083 46.3653 288.923 46.68C288.763 46.9893 288.55 47.2453 288.283 47.448C288.017 47.6453 287.71 47.7893 287.363 47.88C287.022 47.9707 286.665 48.016 286.291 48.016C286.003 48.016 285.755 48.0133 285.547 48.008C285.345 48.008 285.166 48.008 285.011 48.008C284.857 48.008 284.718 48.0053 284.595 48C284.473 48 284.355 48 284.243 48C284.062 48 283.883 48.0027 283.707 48.008C283.531 48.0133 283.353 48.0213 283.171 48.032V47.936ZM284.683 47.392C284.854 47.552 285.049 47.664 285.267 47.728C285.491 47.792 285.715 47.824 285.939 47.824C286.761 47.824 287.358 47.6133 287.731 47.192C288.11 46.7707 288.299 46.16 288.299 45.36C288.299 45.0133 288.235 44.6907 288.107 44.392C287.985 44.088 287.811 43.824 287.587 43.6C287.369 43.376 287.105 43.2 286.795 43.072C286.491 42.944 286.158 42.88 285.795 42.88C285.422 42.88 285.067 42.9547 284.731 43.104C284.71 43.3813 284.697 43.6587 284.691 43.936C284.686 44.208 284.683 44.488 284.683 44.776V47.392Z" fill="black"/>
<path d="M291.363 47.688C291.411 47.6987 291.47 47.7093 291.539 47.72C291.609 47.7307 291.683 47.7413 291.763 47.752C291.843 47.7627 291.926 47.7733 292.011 47.784C292.097 47.7893 292.177 47.792 292.251 47.792C292.571 47.792 292.857 47.7653 293.107 47.712C293.363 47.6587 293.595 47.5733 293.803 47.456C294.017 47.3387 294.217 47.1893 294.403 47.008C294.59 46.8267 294.779 46.608 294.971 46.352L295.059 46.424L294.331 48.032C294.241 48.0213 294.147 48.0133 294.051 48.008C293.955 48.0027 293.862 48 293.771 48H290.763C290.609 48 290.454 48.0027 290.299 48.008C290.145 48.0133 289.99 48.0213 289.835 48.032V47.936C290.027 47.92 290.177 47.8907 290.283 47.848C290.39 47.8053 290.47 47.7387 290.523 47.648C290.577 47.5573 290.609 47.44 290.619 47.296C290.635 47.1467 290.643 46.96 290.643 46.736V44.064C290.643 43.84 290.635 43.656 290.619 43.512C290.609 43.3627 290.577 43.2427 290.523 43.152C290.47 43.0613 290.387 42.9947 290.275 42.952C290.163 42.9093 290.011 42.88 289.819 42.864V42.768C290.001 42.7733 290.171 42.7787 290.331 42.784C290.497 42.7893 290.665 42.7947 290.835 42.8C291.011 42.8 291.195 42.8 291.387 42.8C291.585 42.8 291.806 42.8 292.051 42.8C292.425 42.8 292.798 42.7973 293.171 42.792C293.545 42.7867 293.923 42.7787 294.307 42.768C294.302 42.8267 294.297 42.8853 294.291 42.944C294.291 43.0027 294.291 43.0587 294.291 43.112V43.432C294.291 43.5493 294.297 43.6693 294.307 43.792C294.318 43.9093 294.329 44.04 294.339 44.184L294.235 44.216C294.166 43.96 294.073 43.752 293.955 43.592C293.843 43.4267 293.71 43.2987 293.555 43.208C293.406 43.1173 293.241 43.056 293.059 43.024C292.878 42.992 292.686 42.976 292.483 42.976C292.11 42.976 291.737 42.992 291.363 43.024V45.024C291.47 45.024 291.571 45.0213 291.667 45.016C291.769 45.0107 291.873 45.008 291.979 45.008C292.347 45.008 292.638 44.936 292.851 44.792C293.07 44.6427 293.203 44.3733 293.251 43.984H293.347C293.347 44.176 293.345 44.368 293.339 44.56C293.334 44.752 293.331 44.9413 293.331 45.128C293.331 45.32 293.334 45.512 293.339 45.704C293.345 45.896 293.347 46.088 293.347 46.28H293.251C293.203 46.056 293.145 45.8747 293.075 45.736C293.006 45.592 292.918 45.4827 292.811 45.408C292.71 45.3333 292.582 45.2827 292.427 45.256C292.273 45.2293 292.089 45.216 291.875 45.216H291.363V47.688Z" fill="black"/>
<path d="M129.68 42.768C129.877 42.7787 130.069 42.7867 130.256 42.792C130.448 42.7973 130.664 42.8 130.904 42.8C131.192 42.8 131.48 42.792 131.768 42.776C132.056 42.76 132.357 42.752 132.672 42.752C132.949 42.752 133.197 42.792 133.416 42.872C133.64 42.952 133.829 43.064 133.984 43.208C134.144 43.3467 134.264 43.5093 134.344 43.696C134.429 43.8827 134.472 44.0853 134.472 44.304C134.472 44.4907 134.44 44.656 134.376 44.8C134.317 44.9387 134.234 45.0613 134.128 45.168C134.021 45.2693 133.896 45.3547 133.752 45.424C133.608 45.4933 133.45 45.5467 133.28 45.584C133.392 45.7653 133.53 45.9813 133.696 46.232C133.861 46.4773 134.042 46.7173 134.24 46.952C134.442 47.1813 134.658 47.384 134.888 47.56C135.117 47.736 135.352 47.8453 135.592 47.888V48.032C135.437 48.0213 135.285 48.0133 135.136 48.008C134.992 48.0027 134.842 48 134.688 48C134.554 48 134.421 48.0027 134.288 48.008C134.154 48.0133 134.021 48.0213 133.888 48.032C133.552 47.6747 133.24 47.3013 132.952 46.912C132.669 46.5227 132.41 46.1147 132.176 45.688C132.085 45.6773 131.981 45.6613 131.864 45.64C131.752 45.6187 131.666 45.5867 131.608 45.544V46.928C131.608 47.1093 131.613 47.256 131.624 47.368C131.64 47.48 131.674 47.568 131.728 47.632C131.786 47.696 131.869 47.744 131.976 47.776C132.082 47.8027 132.229 47.824 132.416 47.84V48.032C132.229 48.0213 132.024 48.0133 131.8 48.008C131.581 48.0027 131.357 48 131.128 48C130.882 48 130.64 48.0027 130.4 48.008C130.16 48.0133 129.92 48.0213 129.68 48.032V47.84C129.877 47.824 130.032 47.8027 130.144 47.776C130.261 47.744 130.346 47.696 130.4 47.632C130.458 47.568 130.496 47.48 130.512 47.368C130.528 47.256 130.536 47.1093 130.536 46.928V43.888C130.536 43.728 130.528 43.592 130.512 43.48C130.496 43.368 130.458 43.2747 130.4 43.2C130.346 43.1253 130.261 43.0693 130.144 43.032C130.032 42.9893 129.877 42.96 129.68 42.944V42.768ZM131.608 45.232C131.778 45.312 131.957 45.352 132.144 45.352C132.496 45.352 132.778 45.2533 132.992 45.056C133.21 44.8587 133.32 44.5707 133.32 44.192C133.32 44.032 133.293 43.8827 133.24 43.744C133.192 43.6 133.12 43.4773 133.024 43.376C132.928 43.2693 132.813 43.1867 132.68 43.128C132.546 43.0693 132.397 43.04 132.232 43.04C132.125 43.04 132.021 43.0453 131.92 43.056C131.818 43.0667 131.714 43.0907 131.608 43.128V45.232Z" fill="black"/>
<path d="M135.429 47.84C135.61 47.8293 135.754 47.808 135.861 47.776C135.973 47.7387 136.058 47.6853 136.117 47.616C136.176 47.5413 136.213 47.448 136.229 47.336C136.25 47.224 136.261 47.088 136.261 46.928V43.888C136.261 43.7387 136.25 43.608 136.229 43.496C136.213 43.384 136.176 43.2907 136.117 43.216C136.058 43.1413 135.973 43.0853 135.861 43.048C135.754 43.0053 135.61 42.9813 135.429 42.976V42.752C135.701 42.7627 135.973 42.7733 136.245 42.784C136.522 42.7947 136.797 42.8 137.069 42.8C137.586 42.8 138.101 42.7947 138.613 42.784C139.125 42.7733 139.648 42.7627 140.181 42.752C140.176 42.848 140.173 42.944 140.173 43.04C140.173 43.136 140.173 43.2293 140.173 43.32C140.173 43.4853 140.176 43.648 140.181 43.808C140.186 43.968 140.205 44.1147 140.237 44.248L140.061 44.28C139.933 43.8747 139.728 43.5707 139.445 43.368C139.168 43.16 138.762 43.056 138.229 43.056H137.333V45H137.749C137.888 45 138.024 44.984 138.157 44.952C138.29 44.9147 138.413 44.8587 138.525 44.784C138.642 44.704 138.744 44.6 138.829 44.472C138.914 44.344 138.978 44.1867 139.021 44H139.181C139.176 44.1867 139.168 44.376 139.157 44.568C139.152 44.76 139.149 44.9493 139.149 45.136C139.149 45.328 139.152 45.52 139.157 45.712C139.168 45.8987 139.176 46.088 139.181 46.28H139.021C138.978 46.0827 138.917 45.9173 138.837 45.784C138.757 45.6507 138.664 45.544 138.557 45.464C138.45 45.384 138.328 45.328 138.189 45.296C138.056 45.2587 137.909 45.24 137.749 45.24H137.333V47.616C137.461 47.6533 137.602 47.6827 137.757 47.704C137.917 47.72 138.093 47.728 138.285 47.728C138.808 47.728 139.28 47.6053 139.701 47.36C140.122 47.1093 140.48 46.7227 140.773 46.2L140.925 46.312C140.792 46.5947 140.664 46.8773 140.541 47.16C140.424 47.4427 140.32 47.7333 140.229 48.032C139.813 48.0213 139.4 48.0133 138.989 48.008C138.578 48.0027 138.165 48 137.749 48C137.493 48 137.245 48 137.005 48C136.77 48 136.552 48 136.349 48C136.152 48.0053 135.973 48.0107 135.813 48.016C135.658 48.0213 135.53 48.0267 135.429 48.032V47.84Z" fill="black"/>
<path d="M146.182 44.496C146.118 44.2933 146.032 44.1013 145.926 43.92C145.824 43.7333 145.699 43.5733 145.55 43.44C145.406 43.3013 145.232 43.192 145.03 43.112C144.832 43.032 144.6 42.992 144.334 42.992C143.998 42.992 143.707 43.0613 143.462 43.2C143.222 43.3333 143.022 43.512 142.862 43.736C142.707 43.96 142.592 44.216 142.518 44.504C142.443 44.792 142.406 45.0907 142.406 45.4C142.406 45.7093 142.443 46.008 142.518 46.296C142.592 46.584 142.707 46.84 142.862 47.064C143.022 47.288 143.222 47.4693 143.462 47.608C143.707 47.7413 143.998 47.808 144.334 47.808C144.542 47.808 144.752 47.7653 144.966 47.68C145.184 47.5893 145.363 47.472 145.502 47.328V46.528C145.502 46.416 145.488 46.3227 145.462 46.248C145.435 46.1733 145.39 46.112 145.326 46.064C145.262 46.016 145.174 45.9787 145.062 45.952C144.955 45.92 144.816 45.8933 144.646 45.872V45.68C144.827 45.6907 145.024 45.7013 145.238 45.712C145.456 45.7173 145.696 45.72 145.958 45.72C146.214 45.72 146.451 45.7173 146.67 45.712C146.888 45.7013 147.086 45.6907 147.262 45.68V45.872C147.022 45.8827 146.846 45.9387 146.734 46.04C146.627 46.136 146.574 46.2587 146.574 46.408V47.624C146.366 47.688 146.168 47.752 145.982 47.816C145.8 47.88 145.619 47.9387 145.438 47.992C145.262 48.04 145.083 48.08 144.902 48.112C144.72 48.144 144.528 48.16 144.326 48.16C143.872 48.16 143.456 48.0987 143.078 47.976C142.704 47.848 142.382 47.6667 142.11 47.432C141.838 47.1973 141.627 46.9093 141.478 46.568C141.328 46.2213 141.254 45.832 141.254 45.4C141.254 44.968 141.328 44.5813 141.478 44.24C141.627 43.8933 141.838 43.6027 142.11 43.368C142.382 43.1333 142.704 42.9547 143.078 42.832C143.456 42.704 143.872 42.64 144.326 42.64C144.651 42.64 144.968 42.6773 145.278 42.752C145.587 42.8213 145.894 42.8827 146.198 42.936C146.198 43.08 146.2 43.216 146.206 43.344C146.216 43.472 146.23 43.5973 146.246 43.72C146.262 43.8427 146.28 43.968 146.302 44.096C146.328 44.224 146.36 44.3573 146.398 44.496H146.182Z" fill="black"/>
<path d="M147.493 42.752C147.738 42.7627 147.981 42.7733 148.221 42.784C148.461 42.7947 148.704 42.8 148.949 42.8C149.184 42.8 149.413 42.7947 149.637 42.784C149.866 42.7733 150.098 42.7627 150.333 42.752V42.944C150.152 42.9493 150 42.9707 149.877 43.008C149.76 43.04 149.666 43.0907 149.597 43.16C149.533 43.224 149.488 43.312 149.461 43.424C149.434 43.5307 149.421 43.664 149.421 43.824V47.216C149.421 47.424 149.488 47.576 149.621 47.672C149.754 47.768 149.984 47.824 150.309 47.84L150.293 48.032C150.058 48.0213 149.826 48.0133 149.597 48.008C149.368 48.0027 149.136 48 148.901 48C148.661 48 148.421 48.0027 148.181 48.008C147.941 48.0133 147.701 48.0213 147.461 48.032V47.84C147.786 47.824 148.016 47.768 148.149 47.672C148.282 47.576 148.349 47.424 148.349 47.216V43.824C148.349 43.5093 148.288 43.288 148.165 43.16C148.048 43.0267 147.824 42.9547 147.493 42.944V42.752Z" fill="black"/>
<path d="M154.583 44.344C154.529 44.1467 154.441 43.9627 154.319 43.792C154.201 43.6213 154.063 43.472 153.903 43.344C153.748 43.216 153.577 43.1147 153.391 43.04C153.204 42.9653 153.015 42.928 152.823 42.928C152.583 42.928 152.377 42.992 152.207 43.12C152.041 43.2427 151.959 43.4293 151.959 43.68C151.959 43.872 152.033 44.0347 152.183 44.168C152.337 44.3013 152.529 44.424 152.759 44.536C152.988 44.6427 153.233 44.752 153.495 44.864C153.761 44.976 154.009 45.112 154.239 45.272C154.468 45.4267 154.657 45.6133 154.807 45.832C154.961 46.0507 155.039 46.3227 155.039 46.648C155.039 46.8773 154.993 47.0853 154.903 47.272C154.812 47.4587 154.684 47.6187 154.519 47.752C154.353 47.88 154.153 47.9787 153.919 48.048C153.684 48.1227 153.423 48.16 153.135 48.16C153.001 48.16 152.868 48.1467 152.735 48.12C152.601 48.0987 152.468 48.072 152.335 48.04C152.207 48.0133 152.076 47.9893 151.943 47.968C151.809 47.9413 151.676 47.928 151.543 47.928C151.521 47.928 151.492 47.9333 151.455 47.944C151.423 47.9493 151.385 47.9573 151.343 47.968C151.305 47.9787 151.268 47.9893 151.231 48C151.193 48.0107 151.164 48.0213 151.143 48.032C151.1 47.7333 151.055 47.432 151.007 47.128C150.959 46.824 150.897 46.5173 150.823 46.208H150.999C151.057 46.4053 151.153 46.6 151.287 46.792C151.42 46.984 151.575 47.1573 151.751 47.312C151.932 47.4613 152.127 47.5813 152.335 47.672C152.543 47.7627 152.748 47.808 152.951 47.808C153.127 47.808 153.287 47.7947 153.431 47.768C153.575 47.7413 153.697 47.6987 153.799 47.64C153.905 47.576 153.985 47.4933 154.039 47.392C154.097 47.2853 154.127 47.152 154.127 46.992C154.127 46.7733 154.049 46.592 153.895 46.448C153.74 46.2987 153.545 46.1653 153.311 46.048C153.081 45.9253 152.831 45.808 152.559 45.696C152.292 45.584 152.041 45.456 151.807 45.312C151.577 45.168 151.385 44.9973 151.231 44.8C151.076 44.6027 150.999 44.36 150.999 44.072C150.999 43.5707 151.151 43.208 151.455 42.984C151.759 42.7547 152.22 42.64 152.839 42.64C152.999 42.64 153.153 42.6533 153.303 42.68C153.452 42.7013 153.593 42.728 153.727 42.76C153.86 42.792 153.985 42.8213 154.103 42.848C154.22 42.8693 154.329 42.88 154.431 42.88H154.719C154.713 42.9707 154.708 43.056 154.703 43.136C154.697 43.216 154.695 43.2987 154.695 43.384C154.695 43.5387 154.7 43.6987 154.711 43.864C154.727 44.0293 154.74 44.1893 154.751 44.344H154.583Z" fill="black"/>
<path d="M160.289 44.424C160.231 44.1253 160.151 43.8907 160.049 43.72C159.953 43.544 159.833 43.4107 159.689 43.32C159.545 43.2293 159.38 43.1707 159.193 43.144C159.007 43.1173 158.793 43.104 158.553 43.104V46.928C158.553 47.1093 158.561 47.2587 158.577 47.376C158.593 47.488 158.631 47.5787 158.689 47.648C158.748 47.7173 158.836 47.768 158.953 47.8C159.071 47.832 159.231 47.856 159.433 47.872V48.032C159.209 48.0213 158.983 48.0133 158.753 48.008C158.529 48.0027 158.303 48 158.073 48C157.828 48 157.585 48.0027 157.345 48.008C157.105 48.0133 156.857 48.0213 156.601 48.032V47.872C156.804 47.856 156.964 47.832 157.081 47.8C157.199 47.768 157.287 47.7173 157.345 47.648C157.404 47.5787 157.441 47.488 157.457 47.376C157.473 47.2587 157.481 47.1093 157.481 46.928V43.104C157.241 43.104 157.028 43.1173 156.841 43.144C156.655 43.1707 156.489 43.2293 156.345 43.32C156.201 43.4107 156.079 43.544 155.977 43.72C155.881 43.8907 155.804 44.1253 155.745 44.424H155.537C155.548 44.3227 155.556 44.2213 155.561 44.12C155.572 44.0133 155.58 43.896 155.585 43.768C155.596 43.64 155.604 43.4933 155.609 43.328C155.615 43.1627 155.617 42.9707 155.617 42.752C156.017 42.7627 156.412 42.7733 156.801 42.784C157.191 42.7947 157.583 42.8 157.977 42.8C158.377 42.8 158.777 42.7947 159.177 42.784C159.577 42.7733 159.98 42.7627 160.385 42.752C160.385 42.9707 160.388 43.1627 160.393 43.328C160.399 43.4933 160.404 43.64 160.409 43.768C160.42 43.896 160.428 44.0133 160.433 44.12C160.444 44.2213 160.455 44.3227 160.465 44.424H160.289Z" fill="black"/>
<path d="M160.765 47.84C160.946 47.8293 161.09 47.808 161.197 47.776C161.309 47.7387 161.394 47.6853 161.453 47.616C161.512 47.5413 161.549 47.448 161.565 47.336C161.586 47.224 161.597 47.088 161.597 46.928V43.888C161.597 43.7387 161.586 43.608 161.565 43.496C161.549 43.384 161.512 43.2907 161.453 43.216C161.394 43.1413 161.309 43.0853 161.197 43.048C161.09 43.0053 160.946 42.9813 160.765 42.976V42.752C161.037 42.7627 161.309 42.7733 161.581 42.784C161.858 42.7947 162.133 42.8 162.405 42.8C162.922 42.8 163.437 42.7947 163.949 42.784C164.461 42.7733 164.984 42.7627 165.517 42.752C165.512 42.848 165.509 42.944 165.509 43.04C165.509 43.136 165.509 43.2293 165.509 43.32C165.509 43.4853 165.512 43.648 165.517 43.808C165.522 43.968 165.541 44.1147 165.573 44.248L165.397 44.28C165.269 43.8747 165.064 43.5707 164.781 43.368C164.504 43.16 164.098 43.056 163.565 43.056H162.669V45H163.085C163.224 45 163.36 44.984 163.493 44.952C163.626 44.9147 163.749 44.8587 163.861 44.784C163.978 44.704 164.08 44.6 164.165 44.472C164.25 44.344 164.314 44.1867 164.357 44H164.517C164.512 44.1867 164.504 44.376 164.493 44.568C164.488 44.76 164.485 44.9493 164.485 45.136C164.485 45.328 164.488 45.52 164.493 45.712C164.504 45.8987 164.512 46.088 164.517 46.28H164.357C164.314 46.0827 164.253 45.9173 164.173 45.784C164.093 45.6507 164 45.544 163.893 45.464C163.786 45.384 163.664 45.328 163.525 45.296C163.392 45.2587 163.245 45.24 163.085 45.24H162.669V47.616C162.797 47.6533 162.938 47.6827 163.093 47.704C163.253 47.72 163.429 47.728 163.621 47.728C164.144 47.728 164.616 47.6053 165.037 47.36C165.458 47.1093 165.816 46.7227 166.109 46.2L166.261 46.312C166.128 46.5947 166 46.8773 165.877 47.16C165.76 47.4427 165.656 47.7333 165.565 48.032C165.149 48.0213 164.736 48.0133 164.325 48.008C163.914 48.0027 163.501 48 163.085 48C162.829 48 162.581 48 162.341 48C162.106 48 161.888 48 161.685 48C161.488 48.0053 161.309 48.0107 161.149 48.016C160.994 48.0213 160.866 48.0267 160.765 48.032V47.84Z" fill="black"/>
<path d="M166.422 42.768C166.619 42.7787 166.811 42.7867 166.998 42.792C167.19 42.7973 167.406 42.8 167.646 42.8C167.934 42.8 168.222 42.792 168.51 42.776C168.798 42.76 169.099 42.752 169.414 42.752C169.691 42.752 169.939 42.792 170.158 42.872C170.382 42.952 170.571 43.064 170.726 43.208C170.886 43.3467 171.006 43.5093 171.086 43.696C171.171 43.8827 171.214 44.0853 171.214 44.304C171.214 44.4907 171.182 44.656 171.118 44.8C171.059 44.9387 170.976 45.0613 170.87 45.168C170.763 45.2693 170.638 45.3547 170.494 45.424C170.35 45.4933 170.192 45.5467 170.022 45.584C170.134 45.7653 170.272 45.9813 170.438 46.232C170.603 46.4773 170.784 46.7173 170.982 46.952C171.184 47.1813 171.4 47.384 171.63 47.56C171.859 47.736 172.094 47.8453 172.334 47.888V48.032C172.179 48.0213 172.027 48.0133 171.878 48.008C171.734 48.0027 171.584 48 171.43 48C171.296 48 171.163 48.0027 171.03 48.008C170.896 48.0133 170.763 48.0213 170.63 48.032C170.294 47.6747 169.982 47.3013 169.694 46.912C169.411 46.5227 169.152 46.1147 168.918 45.688C168.827 45.6773 168.723 45.6613 168.606 45.64C168.494 45.6187 168.408 45.5867 168.35 45.544V46.928C168.35 47.1093 168.355 47.256 168.366 47.368C168.382 47.48 168.416 47.568 168.47 47.632C168.528 47.696 168.611 47.744 168.718 47.776C168.824 47.8027 168.971 47.824 169.158 47.84V48.032C168.971 48.0213 168.766 48.0133 168.542 48.008C168.323 48.0027 168.099 48 167.87 48C167.624 48 167.382 48.0027 167.142 48.008C166.902 48.0133 166.662 48.0213 166.422 48.032V47.84C166.619 47.824 166.774 47.8027 166.886 47.776C167.003 47.744 167.088 47.696 167.142 47.632C167.2 47.568 167.238 47.48 167.254 47.368C167.27 47.256 167.278 47.1093 167.278 46.928V43.888C167.278 43.728 167.27 43.592 167.254 43.48C167.238 43.368 167.2 43.2747 167.142 43.2C167.088 43.1253 167.003 43.0693 166.886 43.032C166.774 42.9893 166.619 42.96 166.422 42.944V42.768ZM168.35 45.232C168.52 45.312 168.699 45.352 168.886 45.352C169.238 45.352 169.52 45.2533 169.734 45.056C169.952 44.8587 170.062 44.5707 170.062 44.192C170.062 44.032 170.035 43.8827 169.982 43.744C169.934 43.6 169.862 43.4773 169.766 43.376C169.67 43.2693 169.555 43.1867 169.422 43.128C169.288 43.0693 169.139 43.04 168.974 43.04C168.867 43.04 168.763 43.0453 168.662 43.056C168.56 43.0667 168.456 43.0907 168.35 43.128V45.232Z" fill="black"/>
<path d="M172.171 47.84C172.353 47.8293 172.497 47.808 172.603 47.776C172.715 47.7387 172.801 47.6853 172.859 47.616C172.918 47.5413 172.955 47.448 172.971 47.336C172.993 47.224 173.003 47.088 173.003 46.928V43.888C173.003 43.7387 172.993 43.608 172.971 43.496C172.955 43.384 172.918 43.2907 172.859 43.216C172.801 43.1413 172.715 43.0853 172.603 43.048C172.497 43.0053 172.353 42.9813 172.171 42.976V42.752C172.443 42.7627 172.715 42.7733 172.987 42.784C173.265 42.7947 173.539 42.8 173.811 42.8C174.329 42.8 174.843 42.7947 175.355 42.784C175.867 42.7733 176.39 42.7627 176.923 42.752C176.918 42.848 176.915 42.944 176.915 43.04C176.915 43.136 176.915 43.2293 176.915 43.32C176.915 43.4853 176.918 43.648 176.923 43.808C176.929 43.968 176.947 44.1147 176.979 44.248L176.803 44.28C176.675 43.8747 176.47 43.5707 176.187 43.368C175.91 43.16 175.505 43.056 174.971 43.056H174.075V45H174.491C174.63 45 174.766 44.984 174.899 44.952C175.033 44.9147 175.155 44.8587 175.267 44.784C175.385 44.704 175.486 44.6 175.571 44.472C175.657 44.344 175.721 44.1867 175.763 44H175.923C175.918 44.1867 175.91 44.376 175.899 44.568C175.894 44.76 175.891 44.9493 175.891 45.136C175.891 45.328 175.894 45.52 175.899 45.712C175.91 45.8987 175.918 46.088 175.923 46.28H175.763C175.721 46.0827 175.659 45.9173 175.579 45.784C175.499 45.6507 175.406 45.544 175.299 45.464C175.193 45.384 175.07 45.328 174.931 45.296C174.798 45.2587 174.651 45.24 174.491 45.24H174.075V47.616C174.203 47.6533 174.345 47.6827 174.499 47.704C174.659 47.72 174.835 47.728 175.027 47.728C175.55 47.728 176.022 47.6053 176.443 47.36C176.865 47.1093 177.222 46.7227 177.515 46.2L177.667 46.312C177.534 46.5947 177.406 46.8773 177.283 47.16C177.166 47.4427 177.062 47.7333 176.971 48.032C176.555 48.0213 176.142 48.0133 175.731 48.008C175.321 48.0027 174.907 48 174.491 48C174.235 48 173.987 48 173.747 48C173.513 48 173.294 48 173.091 48C172.894 48.0053 172.715 48.0107 172.555 48.016C172.401 48.0213 172.273 48.0267 172.171 48.032V47.84Z" fill="black"/>
<path d="M177.836 47.808C178.028 47.792 178.18 47.768 178.292 47.736C178.404 47.704 178.487 47.6533 178.54 47.584C178.599 47.5147 178.636 47.424 178.652 47.312C178.668 47.1947 178.676 47.0453 178.676 46.864V43.864C178.676 43.6827 178.668 43.536 178.652 43.424C178.636 43.3067 178.599 43.2133 178.54 43.144C178.487 43.0747 178.401 43.024 178.284 42.992C178.172 42.96 178.017 42.936 177.82 42.92V42.728C177.991 42.744 178.159 42.76 178.324 42.776C178.495 42.792 178.665 42.8 178.836 42.8C179.167 42.8 179.511 42.7867 179.868 42.76C180.225 42.7333 180.649 42.72 181.14 42.72C181.503 42.72 181.863 42.7813 182.22 42.904C182.583 43.0213 182.905 43.2 183.188 43.44C183.471 43.68 183.7 43.9787 183.876 44.336C184.052 44.688 184.14 45.0987 184.14 45.568C184.14 46 184.063 46.3733 183.908 46.688C183.759 47.0027 183.553 47.2613 183.292 47.464C183.036 47.6667 182.737 47.8187 182.396 47.92C182.06 48.016 181.703 48.064 181.324 48.064C181.105 48.064 180.916 48.0613 180.756 48.056C180.596 48.0507 180.436 48.0427 180.276 48.032C180.121 48.0267 179.956 48.0187 179.78 48.008C179.604 48.0027 179.391 48 179.14 48C178.857 48 178.612 48.0027 178.404 48.008C178.196 48.0133 178.007 48.0213 177.836 48.032V47.808ZM179.748 47.376C179.748 47.4507 179.78 47.5147 179.844 47.568C179.908 47.616 179.993 47.656 180.1 47.688C180.207 47.72 180.329 47.744 180.468 47.76C180.612 47.7707 180.761 47.776 180.916 47.776C181.231 47.776 181.516 47.7307 181.772 47.64C182.028 47.544 182.247 47.4027 182.428 47.216C182.609 47.024 182.748 46.784 182.844 46.496C182.94 46.208 182.988 45.8693 182.988 45.48C182.988 45.1227 182.935 44.7947 182.828 44.496C182.727 44.192 182.577 43.9307 182.38 43.712C182.183 43.488 181.94 43.3147 181.652 43.192C181.369 43.0693 181.047 43.008 180.684 43.008C180.524 43.008 180.367 43.0187 180.212 43.04C180.057 43.0613 179.903 43.0933 179.748 43.136V47.376Z" fill="black"/>
</svg>
