<svg width="280" height="22" viewBox="0 0 280 22" fill="none" xmlns="http://www.w3.org/2000/svg">
<path d="M263.109 5.14024C266 10.8608 279.61 10.8608 279.61 10.8608C279.61 10.8608 266 10.8608 263.109 16.8608C263.375 14.6095 266 10.8608 266 10.8608C266 10.8608 263.55 7.3638 263.109 5.14024Z" fill="black"/>
<path d="M0 10.8608H266M266 10.8608C266 10.8608 263.375 14.6095 263.109 16.8608C266 10.8608 279.61 10.8608 279.61 10.8608C279.61 10.8608 266 10.8608 263.109 5.14024C263.55 7.3638 266 10.8608 266 10.8608ZM7.84366 1.32391L14.2862 11.4479M1.84366 1.32391L8.28617 11.4479M14.2863 10.3977L7.8437 20.5216M8.28628 10.3977L1.8437 20.5216" stroke="black" stroke-width="2"/>
</svg>
