<svg width="312" height="659" viewBox="0 0 312 659" fill="none" xmlns="http://www.w3.org/2000/svg">
<mask id="path-1-inside-1_7_5" fill="white">
<path d="M228.473 522.876L312 658.5H236.5L211.649 605.74C209.822 601.86 204 603.162 204 607.452C204 614.106 198.606 619.5 191.952 619.5H33.319C27.1987 619.5 21.4977 616.39 18.1846 611.244L2.86552 587.451C0.99478 584.545 0 581.162 0 577.707V505V368.336C0 353.441 17.0573 344.991 28.9063 354.016L82.7862 395.052C84.9024 396.664 86.6351 398.725 87.8596 401.086L131.891 486.005C133.323 488.765 137.155 489.061 138.994 486.554C139.919 485.292 140.065 483.62 139.371 482.217L101.548 405.731C97.9717 398.498 99.6447 389.77 105.642 384.372L113.748 377.076C120.47 371.027 130.638 370.904 137.504 376.789L143.437 381.874C150.944 388.309 162.237 387.483 168.728 380.025L187.716 358.209C195.75 348.979 210.454 350.283 216.738 360.782L239.426 398.687C240.989 401.299 245 400.191 245 397.146V353V313.198C245 295.88 222.937 288.552 212.576 302.43L202.174 316.363C195.885 324.787 183.745 326.051 175.855 319.103L168.484 312.613C161.863 306.782 151.991 306.61 145.17 312.206L89.1022 358.211C83.0775 363.154 74.556 363.659 67.9897 359.462L8.3052 321.309C3.13092 318.001 0 312.284 0 306.143V23.046C0 11.4963 10.7232 2.93516 21.9862 5.49287L108.492 25.1375C117.971 27.2901 124.028 36.5796 122.175 46.1217L111.234 102.47C109.573 111.026 120.134 116.432 126.103 110.082C127.932 108.136 130.553 107.139 133.212 107.377L182.103 111.749C187.424 112.225 192.258 115.04 195.299 119.432L198.632 124.246C201.994 129.102 207.525 132 213.431 132H229.401C238.353 132 245.945 125.421 247.218 116.559L257.355 45.9919C257.695 43.6218 255.856 41.5 253.462 41.5C251.708 41.5 250.166 42.6612 249.682 44.3468L235.851 92.4886C231.519 107.57 211.308 110.273 203.165 96.8599L197.217 87.0634C193.204 80.4535 185.417 77.1454 177.874 78.8453L146.181 85.9874C133.561 88.8313 122.151 77.8322 124.531 65.1168L130.684 32.2368C133.006 19.827 147.05 13.6015 157.805 20.2143L185.711 37.3728C196.857 44.226 211.359 37.2745 212.997 24.2933L214.013 16.246C215.148 7.2478 222.801 0.5 231.871 0.5H272C281.941 0.5 290 8.55887 290 18.5V144.79C290 153.35 283.973 160.725 275.585 162.43L111.22 195.837C107.502 196.593 103.64 196.155 100.186 194.585L77.5515 184.296C71.1256 181.375 67 174.968 67 167.91V70.75C67 65.6414 62.8586 61.5 57.75 61.5C52.6414 61.5 48.5 65.6414 48.5 70.75V179.571C48.5 186.802 52.827 193.331 59.4865 196.148L86.4292 207.547C94.545 210.981 98.9817 219.785 96.9124 228.351L80.4946 296.313C80.035 298.216 82.2996 299.578 83.7648 298.28L107.935 276.872C111.792 273.456 114 268.55 114 263.398V248.463C114 241.215 118.347 234.674 125.03 231.867L131.238 229.26C136.157 227.194 141.739 227.417 146.478 229.868L156.12 234.855C163.173 238.503 171.783 237.098 177.311 231.398L210.696 196.969C214.087 193.473 218.749 191.5 223.619 191.5H272C281.941 191.5 290 199.559 290 209.5V489.684C290 506.53 268.768 513.956 258 501L190.018 423.436C186.566 419.499 180.437 419.501 176.988 423.442C174.593 426.179 174.164 430.121 175.913 433.31L198.027 473.615C201.623 480.168 200.794 488.261 195.946 493.949L172.25 521.75L145.89 552.676C142.47 556.689 137.463 559 132.191 559H125.125C118.307 559 112.074 555.148 109.025 549.05L58.9109 448.822C57.3378 445.676 52.5678 447.339 53.2919 450.781L76.4006 560.642C77.9607 568.059 83.9996 573.704 91.5047 574.761L139.789 581.562C146.114 582.453 152.438 579.925 156.405 574.919L199.04 521.134C206.799 511.346 221.923 512.241 228.473 522.876Z"/>
</mask>
<path d="M228.473 522.876L312 658.5H236.5L211.649 605.74C209.822 601.86 204 603.162 204 607.452C204 614.106 198.606 619.5 191.952 619.5H33.319C27.1987 619.5 21.4977 616.39 18.1846 611.244L2.86552 587.451C0.99478 584.545 0 581.162 0 577.707V505V368.336C0 353.441 17.0573 344.991 28.9063 354.016L82.7862 395.052C84.9024 396.664 86.6351 398.725 87.8596 401.086L131.891 486.005C133.323 488.765 137.155 489.061 138.994 486.554C139.919 485.292 140.065 483.62 139.371 482.217L101.548 405.731C97.9717 398.498 99.6447 389.77 105.642 384.372L113.748 377.076C120.47 371.027 130.638 370.904 137.504 376.789L143.437 381.874C150.944 388.309 162.237 387.483 168.728 380.025L187.716 358.209C195.75 348.979 210.454 350.283 216.738 360.782L239.426 398.687C240.989 401.299 245 400.191 245 397.146V353V313.198C245 295.88 222.937 288.552 212.576 302.43L202.174 316.363C195.885 324.787 183.745 326.051 175.855 319.103L168.484 312.613C161.863 306.782 151.991 306.61 145.17 312.206L89.1022 358.211C83.0775 363.154 74.556 363.659 67.9897 359.462L8.3052 321.309C3.13092 318.001 0 312.284 0 306.143V23.046C0 11.4963 10.7232 2.93516 21.9862 5.49287L108.492 25.1375C117.971 27.2901 124.028 36.5796 122.175 46.1217L111.234 102.47C109.573 111.026 120.134 116.432 126.103 110.082C127.932 108.136 130.553 107.139 133.212 107.377L182.103 111.749C187.424 112.225 192.258 115.04 195.299 119.432L198.632 124.246C201.994 129.102 207.525 132 213.431 132H229.401C238.353 132 245.945 125.421 247.218 116.559L257.355 45.9919C257.695 43.6218 255.856 41.5 253.462 41.5C251.708 41.5 250.166 42.6612 249.682 44.3468L235.851 92.4886C231.519 107.57 211.308 110.273 203.165 96.8599L197.217 87.0634C193.204 80.4535 185.417 77.1454 177.874 78.8453L146.181 85.9874C133.561 88.8313 122.151 77.8322 124.531 65.1168L130.684 32.2368C133.006 19.827 147.05 13.6015 157.805 20.2143L185.711 37.3728C196.857 44.226 211.359 37.2745 212.997 24.2933L214.013 16.246C215.148 7.2478 222.801 0.5 231.871 0.5H272C281.941 0.5 290 8.55887 290 18.5V144.79C290 153.35 283.973 160.725 275.585 162.43L111.22 195.837C107.502 196.593 103.64 196.155 100.186 194.585L77.5515 184.296C71.1256 181.375 67 174.968 67 167.91V70.75C67 65.6414 62.8586 61.5 57.75 61.5C52.6414 61.5 48.5 65.6414 48.5 70.75V179.571C48.5 186.802 52.827 193.331 59.4865 196.148L86.4292 207.547C94.545 210.981 98.9817 219.785 96.9124 228.351L80.4946 296.313C80.035 298.216 82.2996 299.578 83.7648 298.28L107.935 276.872C111.792 273.456 114 268.55 114 263.398V248.463C114 241.215 118.347 234.674 125.03 231.867L131.238 229.26C136.157 227.194 141.739 227.417 146.478 229.868L156.12 234.855C163.173 238.503 171.783 237.098 177.311 231.398L210.696 196.969C214.087 193.473 218.749 191.5 223.619 191.5H272C281.941 191.5 290 199.559 290 209.5V489.684C290 506.53 268.768 513.956 258 501L190.018 423.436C186.566 419.499 180.437 419.501 176.988 423.442C174.593 426.179 174.164 430.121 175.913 433.31L198.027 473.615C201.623 480.168 200.794 488.261 195.946 493.949L172.25 521.75L145.89 552.676C142.47 556.689 137.463 559 132.191 559H125.125C118.307 559 112.074 555.148 109.025 549.05L58.9109 448.822C57.3378 445.676 52.5678 447.339 53.2919 450.781L76.4006 560.642C77.9607 568.059 83.9996 573.704 91.5047 574.761L139.789 581.562C146.114 582.453 152.438 579.925 156.405 574.919L199.04 521.134C206.799 511.346 221.923 512.241 228.473 522.876Z" fill="#CAA5A4"/>
<path d="M312 658.5V660.5C312.725 660.5 313.393 660.108 313.746 659.475C314.099 658.843 314.083 658.068 313.703 657.451L312 658.5ZM228.473 522.876L226.77 523.925L226.77 523.925L228.473 522.876ZM236.5 658.5L234.691 659.352L235.231 660.5H236.5V658.5ZM211.649 605.74L213.459 604.888L213.459 604.888L211.649 605.74ZM156.405 574.919L157.973 576.162L157.973 576.162L156.405 574.919ZM199.04 521.134L200.608 522.376L200.608 522.376L199.04 521.134ZM18.1846 611.244L16.503 612.327L16.503 612.327L18.1846 611.244ZM2.86552 587.451L4.54713 586.368L4.54712 586.368L2.86552 587.451ZM139.789 581.562L140.068 579.581L140.068 579.581L139.789 581.562ZM91.5047 574.761L91.2258 576.742L91.2258 576.742L91.5047 574.761ZM28.9063 354.016L27.6945 355.607L27.6945 355.607L28.9063 354.016ZM82.7862 395.052L83.9981 393.461L83.9981 393.461L82.7862 395.052ZM58.9109 448.822L60.6997 447.927L60.6997 447.927L58.9109 448.822ZM109.025 549.05L107.236 549.944L107.236 549.944L109.025 549.05ZM87.8596 401.086L89.6351 400.166L89.6351 400.166L87.8596 401.086ZM131.891 486.005L130.116 486.925L130.116 486.925L131.891 486.005ZM139.371 482.217L137.578 483.103L137.578 483.103L139.371 482.217ZM101.548 405.731L99.7553 406.617L99.7553 406.617L101.548 405.731ZM105.642 384.372L104.304 382.886L104.304 382.886L105.642 384.372ZM113.748 377.076L112.41 375.59L112.41 375.59L113.748 377.076ZM198.027 473.615L199.781 472.653L199.781 472.653L198.027 473.615ZM175.913 433.31L174.16 434.272L174.16 434.272L175.913 433.31ZM137.504 376.789L138.806 375.271L138.806 375.271L137.504 376.789ZM143.437 381.874L142.135 383.393L142.135 383.393L143.437 381.874ZM168.728 380.025L170.237 381.338L170.237 381.338L168.728 380.025ZM187.716 358.209L186.207 356.896L186.207 356.896L187.716 358.209ZM216.738 360.782L215.022 361.809L215.022 361.809L216.738 360.782ZM239.426 398.687L241.142 397.66L241.142 397.66L239.426 398.687ZM190.018 423.436L191.522 422.118L191.522 422.118L190.018 423.436ZM258 501L259.538 499.722L259.521 499.701L259.504 499.682L258 501ZM210.696 196.969L209.261 195.577L209.261 195.577L210.696 196.969ZM177.311 231.398L178.747 232.79L178.747 232.79L177.311 231.398ZM212.576 302.43L214.179 303.626L214.179 303.626L212.576 302.43ZM202.174 316.363L203.777 317.559L203.777 317.559L202.174 316.363ZM156.12 234.855L157.038 233.078L157.038 233.078L156.12 234.855ZM146.478 229.868L145.559 231.644L145.559 231.644L146.478 229.868ZM131.238 229.26L132.012 231.104L132.012 231.104L131.238 229.26ZM125.03 231.867L125.804 233.711L125.804 233.711L125.03 231.867ZM175.855 319.103L174.533 320.604L174.533 320.604L175.855 319.103ZM168.484 312.613L169.806 311.112L169.806 311.112L168.484 312.613ZM145.17 312.206L146.439 313.752L146.439 313.752L145.17 312.206ZM89.1022 358.211L90.3709 359.757L90.3709 359.757L89.1022 358.211ZM107.935 276.872L109.261 278.369L109.261 278.369L107.935 276.872ZM83.7648 298.28L85.0908 299.777L85.0908 299.777L83.7648 298.28ZM67.9897 359.462L66.9125 361.147L66.9125 361.147L67.9897 359.462ZM8.3052 321.309L7.228 322.994L7.228 322.994L8.3052 321.309ZM80.4946 296.313L78.5505 295.843L78.5505 295.843L80.4946 296.313ZM96.9124 228.351L94.9683 227.881L94.9683 227.881L96.9124 228.351ZM86.4292 207.547L85.6499 209.389L85.6499 209.389L86.4292 207.547ZM59.4865 196.148L60.2658 194.306L60.2658 194.306L59.4865 196.148ZM77.5515 184.296L76.7239 186.117L76.7239 186.117L77.5515 184.296ZM100.186 194.585L99.3587 196.405L99.3587 196.405L100.186 194.585ZM111.22 195.837L111.618 197.797L111.618 197.797L111.22 195.837ZM275.585 162.43L275.187 160.47L275.187 160.47L275.585 162.43ZM21.9862 5.49287L21.5433 7.44321L21.9862 5.49287ZM108.492 25.1375L108.049 27.0879L108.049 27.0879L108.492 25.1375ZM122.175 46.1217L120.212 45.7404L120.212 45.7404L122.175 46.1217ZM111.234 102.47L113.197 102.851L113.197 102.851L111.234 102.47ZM214.013 16.246L212.028 15.9956L212.028 15.9956L214.013 16.246ZM212.997 24.2933L214.981 24.5438L214.981 24.5438L212.997 24.2933ZM185.711 37.3728L186.758 35.6691L186.758 35.6691L185.711 37.3728ZM157.805 20.2143L156.757 21.918L156.757 21.918L157.805 20.2143ZM235.851 92.4886L233.929 91.9363L233.929 91.9363L235.851 92.4886ZM249.682 44.3468L251.604 44.8991L251.604 44.8991L249.682 44.3468ZM257.355 45.9919L255.375 45.7075L255.375 45.7075L257.355 45.9919ZM247.218 116.559L249.198 116.844L249.198 116.844L247.218 116.559ZM124.531 65.1168L126.497 65.4847L126.497 65.4847L124.531 65.1168ZM130.684 32.2368L132.65 32.6047L132.65 32.6047L130.684 32.2368ZM133.212 107.377L133.391 105.385L133.391 105.385L133.212 107.377ZM182.103 111.749L181.925 113.741L181.925 113.741L182.103 111.749ZM195.299 119.432L196.943 118.293L196.943 118.293L195.299 119.432ZM198.632 124.246L200.276 123.107L200.276 123.107L198.632 124.246ZM76.4006 560.642L78.3578 560.231L78.3578 560.231L76.4006 560.642ZM53.2919 450.781L51.3347 451.193L51.3347 451.193L53.2919 450.781ZM145.89 552.676L147.412 553.974L147.412 553.974L145.89 552.676ZM172.25 521.75L173.772 523.047L173.772 523.047L172.25 521.75ZM195.946 493.949L194.424 492.652L194.424 492.652L195.946 493.949ZM146.181 85.9874L146.62 87.9385L146.62 87.9385L146.181 85.9874ZM177.874 78.8453L177.434 76.8943L177.434 76.8943L177.874 78.8453ZM197.217 87.0634L195.507 88.1013L195.507 88.1013L197.217 87.0634ZM203.165 96.8599L204.875 95.822L204.875 95.822L203.165 96.8599ZM126.103 110.082L124.646 108.712L124.646 108.712L126.103 110.082ZM176.988 423.442L178.493 424.759L178.493 424.759L176.988 423.442ZM138.994 486.554L140.606 487.737L140.606 487.737L138.994 486.554ZM313.703 657.451L230.176 521.827L226.77 523.925L310.297 659.549L313.703 657.451ZM238.309 657.648L213.459 604.888L209.84 606.592L234.691 659.352L238.309 657.648ZM157.973 576.162L200.608 522.376L197.473 519.891L154.838 573.677L157.973 576.162ZM19.8662 610.161L4.54713 586.368L1.18391 588.533L16.503 612.327L19.8662 610.161ZM140.068 579.581L91.7837 572.781L91.2258 576.742L139.51 583.542L140.068 579.581ZM27.6945 355.607L81.5744 396.643L83.9981 393.461L30.1181 352.425L27.6945 355.607ZM33.319 621.5H191.952V617.5H33.319V621.5ZM312 656.5H236.5V660.5H312V656.5ZM57.122 449.716L107.236 549.944L110.814 548.155L60.6997 447.927L57.122 449.716ZM125.125 561H132.191V557H125.125V561ZM86.084 402.007L130.116 486.925L133.667 485.084L89.6351 400.166L86.084 402.007ZM141.164 481.33L103.341 404.844L99.7553 406.617L137.578 483.103L141.164 481.33ZM106.98 385.859L115.086 378.563L112.41 375.59L104.304 382.886L106.98 385.859ZM199.781 472.653L177.667 432.348L174.16 434.272L196.274 474.577L199.781 472.653ZM136.202 378.308L142.135 383.393L144.738 380.356L138.806 375.271L136.202 378.308ZM170.237 381.338L189.225 359.522L186.207 356.896L167.22 378.712L170.237 381.338ZM215.022 361.809L237.71 399.714L241.142 397.66L218.454 359.755L215.022 361.809ZM188.514 424.755L256.496 502.318L259.504 499.682L191.522 422.118L188.514 424.755ZM292 489.684V209.5H288V489.684H292ZM223.619 193.5H272V189.5H223.619V193.5ZM247 397.146V353H243V397.146H247ZM247 353V313.198H243V353H247ZM209.261 195.577L175.876 230.005L178.747 232.79L212.132 198.362L209.261 195.577ZM210.974 301.233L200.572 315.166L203.777 317.559L214.179 303.626L210.974 301.233ZM157.038 233.078L147.397 228.091L145.559 231.644L155.201 236.631L157.038 233.078ZM130.464 227.416L124.255 230.024L125.804 233.711L132.012 231.104L130.464 227.416ZM177.176 317.602L169.806 311.112L167.162 314.114L174.533 320.604L177.176 317.602ZM143.902 310.66L87.8336 356.665L90.3709 359.757L146.439 313.752L143.902 310.66ZM112 248.463V263.398H116V248.463H112ZM106.609 275.375L82.4387 296.783L85.0908 299.777L109.261 278.369L106.609 275.375ZM69.0669 357.777L9.3824 319.624L7.228 322.994L66.9125 361.147L69.0669 357.777ZM82.4387 296.783L98.8564 228.821L94.9683 227.881L78.5505 295.843L82.4387 296.783ZM2 306.143V23.046H-2V306.143H2ZM87.2085 205.705L60.2658 194.306L58.7072 197.99L85.6499 209.389L87.2085 205.705ZM50.5 179.571V70.75H46.5V179.571H50.5ZM65 70.75V167.91H69V70.75H65ZM76.7239 186.117L99.3587 196.405L101.014 192.764L78.3792 182.475L76.7239 186.117ZM111.618 197.797L275.984 164.39L275.187 160.47L110.822 193.877L111.618 197.797ZM21.5433 7.44321L108.049 27.0879L108.934 23.1872L22.4291 3.54253L21.5433 7.44321ZM120.212 45.7404L109.271 102.089L113.197 102.851L124.139 46.5029L120.212 45.7404ZM292 144.79V18.5H288V144.79H292ZM272 -1.5H231.871V2.5H272V-1.5ZM212.028 15.9956L211.013 24.0429L214.981 24.5438L215.997 16.4965L212.028 15.9956ZM186.758 35.6691L158.852 18.5106L156.757 21.918L184.663 39.0765L186.758 35.6691ZM237.774 93.0408L251.604 44.8991L247.76 43.7946L233.929 91.9363L237.774 93.0408ZM255.375 45.7075L245.238 116.275L249.198 116.844L259.334 46.2763L255.375 45.7075ZM126.497 65.4847L132.65 32.6047L128.718 31.8689L122.565 64.749L126.497 65.4847ZM133.034 109.369L181.925 113.741L182.281 109.757L133.391 105.385L133.034 109.369ZM193.654 120.57L196.987 125.384L200.276 123.107L196.943 118.293L193.654 120.57ZM213.431 134H229.401V130H213.431V134ZM78.3578 560.231L55.249 450.369L51.3347 451.193L74.4434 561.054L78.3578 560.231ZM2 577.707V505H-2V577.707H2ZM2 505V368.336H-2V505H2ZM147.412 553.974L173.772 523.047L170.728 520.453L144.368 551.379L147.412 553.974ZM173.772 523.047L197.468 495.247L194.424 492.652L170.728 520.453L173.772 523.047ZM146.62 87.9385L178.313 80.7964L177.434 76.8943L145.741 84.0364L146.62 87.9385ZM195.507 88.1013L201.455 97.8979L204.875 95.822L198.927 86.0254L195.507 88.1013ZM178.313 80.7964C185.019 79.2853 191.94 82.2259 195.507 88.1013L198.927 86.0254C194.468 78.6811 185.816 75.0054 177.434 76.8943L178.313 80.7964ZM196.987 125.384C200.723 130.78 206.868 134 213.431 134V130C208.181 130 203.265 127.424 200.276 123.107L196.987 125.384ZM181.925 113.741C186.654 114.164 190.952 116.666 193.654 120.57L196.943 118.293C193.565 113.413 188.193 110.286 182.281 109.757L181.925 113.741ZM253.462 43.5C254.639 43.5 255.542 44.5427 255.375 45.7075L259.334 46.2763C259.848 42.7008 257.074 39.5 253.462 39.5V43.5ZM251.604 44.8991C251.842 44.0707 252.6 43.5 253.462 43.5V39.5C250.816 39.5 248.49 41.2518 247.76 43.7946L251.604 44.8991ZM233.929 91.9363C230.078 105.342 212.113 107.744 204.875 95.822L201.455 97.8979C210.504 112.801 232.959 109.798 237.774 93.0408L233.929 91.9363ZM122.565 64.749C119.921 78.8771 132.599 91.0983 146.62 87.9385L145.741 84.0364C134.524 86.5642 124.382 76.7872 126.497 65.4847L122.565 64.749ZM158.852 18.5106C146.902 11.1631 131.298 18.0803 128.718 31.8689L132.65 32.6047C134.714 21.5738 147.197 16.04 156.757 21.918L158.852 18.5106ZM211.013 24.0429C209.556 35.5817 196.666 41.7608 186.758 35.6691L184.663 39.0765C197.047 46.6911 213.161 38.9673 214.981 24.5438L211.013 24.0429ZM231.871 -1.5C221.794 -1.5 213.29 5.99755 212.028 15.9956L215.997 16.4965C217.006 8.49804 223.809 2.5 231.871 2.5V-1.5ZM292 18.5C292 7.4543 283.046 -1.5 272 -1.5V2.5C280.837 2.5 288 9.66344 288 18.5H292ZM127.561 111.451C128.969 109.954 130.987 109.186 133.034 109.369L133.391 105.385C130.12 105.092 126.895 106.319 124.646 108.712L127.561 111.451ZM108.049 27.0879C116.474 29.0013 121.859 37.2586 120.212 45.7404L124.139 46.5029C126.197 35.9006 119.467 25.579 108.934 23.1872L108.049 27.0879ZM275.984 164.39C285.303 162.496 292 154.301 292 144.79H288C288 152.399 282.643 158.955 275.187 160.47L275.984 164.39ZM99.3587 196.405C103.196 198.15 107.487 198.637 111.618 197.797L110.822 193.877C107.517 194.549 104.084 194.159 101.014 192.764L99.3587 196.405ZM65 167.91C65 175.752 69.5841 182.871 76.7239 186.117L78.3792 182.475C72.6672 179.879 69 174.184 69 167.91H65ZM57.75 63.5C61.7541 63.5 65 66.7459 65 70.75H69C69 64.5368 63.9632 59.5 57.75 59.5V63.5ZM50.5 70.75C50.5 66.7459 53.7459 63.5 57.75 63.5V59.5C51.5368 59.5 46.5 64.5368 46.5 70.75H50.5ZM60.2658 194.306C54.3462 191.802 50.5 185.998 50.5 179.571H46.5C46.5 187.605 51.3078 194.86 58.7072 197.99L60.2658 194.306ZM2 23.046C2 12.7796 11.5318 5.16969 21.5433 7.44321L22.4291 3.54253C9.9147 0.700623 -2 10.213 -2 23.046H2ZM98.8564 228.821C101.156 219.303 96.2261 209.52 87.2085 205.705L85.6499 209.389C92.864 212.441 96.8077 220.267 94.9683 227.881L98.8564 228.821ZM9.3824 319.624C4.78304 316.684 2 311.602 2 306.143H-2C-2 312.966 1.4788 319.319 7.228 322.994L9.3824 319.624ZM82.4387 296.783C82.4277 296.792 82.4208 296.797 82.4185 296.798C82.4161 296.8 82.4168 296.799 82.4203 296.798C82.4238 296.796 82.4286 296.795 82.4342 296.793C82.4397 296.792 82.4449 296.791 82.4493 296.791C82.4581 296.791 82.4611 296.792 82.4579 296.791C82.4543 296.79 82.4472 296.788 82.4387 296.783C82.4302 296.778 82.4247 296.772 82.4222 296.77C82.42 296.767 82.4225 296.769 82.4261 296.777C82.428 296.781 82.4298 296.786 82.4313 296.792C82.4328 296.797 82.4336 296.802 82.4339 296.806C82.4343 296.81 82.434 296.811 82.4342 296.808C82.4344 296.805 82.4352 296.797 82.4387 296.783L78.5505 295.843C77.6313 299.649 82.1605 302.372 85.0908 299.777L82.4387 296.783ZM112 263.398C112 267.978 110.037 272.338 106.609 275.375L109.261 278.369C113.546 274.573 116 269.123 116 263.398H112ZM87.8336 356.665C82.4783 361.059 74.9036 361.508 69.0669 357.777L66.9125 361.147C74.2083 365.811 83.6767 365.25 90.3709 359.757L87.8336 356.665ZM169.806 311.112C162.449 304.633 151.48 304.442 143.902 310.66L146.439 313.752C152.502 308.778 161.277 308.931 167.162 314.114L169.806 311.112ZM124.255 230.024C116.83 233.142 112 240.41 112 248.463H116C116 242.02 119.864 236.206 125.804 233.711L124.255 230.024ZM147.397 228.091C142.131 225.368 135.929 225.121 130.464 227.416L132.012 231.104C136.385 229.268 141.347 229.465 145.559 231.644L147.397 228.091ZM200.572 315.166C194.981 322.655 184.19 323.778 177.176 317.602L174.533 320.604C183.3 328.324 196.789 326.92 203.777 317.559L200.572 315.166ZM175.876 230.005C170.962 235.073 163.308 236.321 157.038 233.078L155.201 236.631C163.038 240.685 172.605 239.124 178.747 232.79L175.876 230.005ZM247 313.198C247 293.956 222.485 285.814 210.974 301.233L214.179 303.626C223.388 291.291 243 297.804 243 313.198H247ZM292 209.5C292 198.454 283.046 189.5 272 189.5V193.5C280.837 193.5 288 200.663 288 209.5H292ZM256.462 502.278C268.386 516.624 292 508.467 292 489.684H288C288 504.594 269.151 511.287 259.538 499.722L256.462 502.278ZM223.619 189.5C218.208 189.5 213.027 191.693 209.261 195.577L212.132 198.362C215.146 195.254 219.29 193.5 223.619 193.5V189.5ZM237.71 399.714C240.316 404.068 247 402.22 247 397.146H243C243 398.161 241.663 398.531 241.142 397.66L237.71 399.714ZM189.225 359.522C196.366 351.318 209.436 352.476 215.022 361.809L218.454 359.755C211.472 348.089 195.134 346.64 186.207 356.896L189.225 359.522ZM142.135 383.393C150.477 390.543 163.024 389.625 170.237 381.338L167.22 378.712C161.449 385.342 151.411 386.076 144.738 380.356L142.135 383.393ZM177.667 432.348C176.321 429.896 176.652 426.864 178.493 424.759L175.483 422.125C172.535 425.494 172.006 430.347 174.16 434.272L177.667 432.348ZM115.086 378.563C121.061 373.185 130.099 373.076 136.202 378.308L138.806 375.271C131.176 368.731 119.879 368.868 112.41 375.59L115.086 378.563ZM103.341 404.844C100.162 398.415 101.649 390.657 106.98 385.859L104.304 382.886C97.6404 388.883 95.7815 398.581 99.7553 406.617L103.341 404.844ZM140.606 487.737C141.974 485.873 142.188 483.402 141.164 481.33L137.578 483.103C137.941 483.837 137.865 484.711 137.381 485.371L140.606 487.737ZM130.116 486.925C132.23 491.002 137.891 491.44 140.606 487.737L137.381 485.371C136.419 486.682 134.415 486.527 133.667 485.084L130.116 486.925ZM196.274 474.577C199.47 480.402 198.734 487.596 194.424 492.652L197.468 495.247C202.855 488.926 203.776 479.934 199.781 472.653L196.274 474.577ZM132.191 561C138.049 561 143.612 558.432 147.412 553.974L144.368 551.379C141.328 554.945 136.877 557 132.191 557V561ZM60.6997 447.927C58.0778 442.684 50.1279 445.456 51.3347 451.193L55.249 450.369C55.1724 450.005 55.2485 449.785 55.3383 449.642C55.4447 449.472 55.6376 449.31 55.8984 449.219C56.1592 449.128 56.4107 449.135 56.5997 449.202C56.7591 449.258 56.9555 449.383 57.122 449.716L60.6997 447.927ZM81.5744 396.643C83.4555 398.076 84.9956 399.908 86.0841 402.007L89.6351 400.166C88.2745 397.542 86.3494 395.252 83.9981 393.461L81.5744 396.643ZM30.1181 352.425C16.9526 342.398 -2 351.786 -2 368.336H2C2 355.096 17.1621 347.585 27.6945 355.607L30.1181 352.425ZM202 607.452C202 613.001 197.501 617.5 191.952 617.5V621.5C199.71 621.5 206 615.21 206 607.452H202ZM91.7837 572.781C85.1125 571.841 79.7445 566.823 78.3578 560.231L74.4434 561.054C76.1769 569.295 82.8868 575.567 91.2258 576.742L91.7837 572.781ZM16.503 612.327C20.1843 618.045 26.5187 621.5 33.319 621.5V617.5C27.8787 617.5 22.8112 614.736 19.8662 610.161L16.503 612.327ZM154.838 573.677C151.311 578.126 145.69 580.373 140.068 579.581L139.51 583.542C146.538 584.532 153.564 581.723 157.973 576.162L154.838 573.677ZM245.238 116.275C244.107 124.152 237.359 130 229.401 130V134C239.348 134 247.783 126.69 249.198 116.844L245.238 116.275ZM213.459 604.888C210.721 599.075 202 601.026 202 607.452H206C206 605.298 208.923 604.645 209.84 606.592L213.459 604.888ZM4.54712 586.368C2.88425 583.785 2 580.778 2 577.707H-2C-2 581.546 -0.894692 585.305 1.18392 588.533L4.54712 586.368ZM107.236 549.944C110.624 556.72 117.549 561 125.125 561V557C119.064 557 113.524 553.576 110.814 548.155L107.236 549.944ZM178.493 424.759C181.145 421.728 185.859 421.726 188.514 424.755L191.522 422.118C187.273 417.271 179.728 417.274 175.483 422.125L178.493 424.759ZM109.271 102.089C107.227 112.613 120.217 119.263 127.561 111.451L124.646 108.712C120.05 113.602 111.918 109.439 113.197 102.851L109.271 102.089ZM230.176 521.827C222.899 510.011 206.094 509.016 197.473 519.891L200.608 522.376C207.504 513.676 220.948 514.472 226.77 523.925L230.176 521.827Z" fill="black" mask="url(#path-1-inside-1_7_5)"/>
</svg>
